<svg width="87" height="87" viewBox="0 0 87 87" fill="none" xmlns="http://www.w3.org/2000/svg">
<circle cx="43.5" cy="43.5" r="42.5" stroke="#35CCCD" stroke-width="2" stroke-linecap="round" stroke-dasharray="6 8"/>
<path fill-rule="evenodd" clip-rule="evenodd" d="M42.9453 38.0246C39.5026 38.0246 36.7118 40.8155 36.7118 44.2581C36.7118 47.7008 39.5026 50.4916 42.9453 50.4916C46.3879 50.4916 49.1788 47.7008 49.1788 44.2581C49.1788 40.8155 46.3879 38.0246 42.9453 38.0246ZM38.6802 44.2581C38.6802 41.9026 40.5898 39.9931 42.9453 39.9931C45.3008 39.9931 47.2103 41.9026 47.2103 44.2581C47.2103 46.6136 45.3008 48.5231 42.9453 48.5231C40.5898 48.5231 38.6802 46.6136 38.6802 44.2581Z" fill="#35CCCD"/>
<path fill-rule="evenodd" clip-rule="evenodd" d="M47.7354 30.1391C45.0036 27.7108 40.8869 27.7108 38.1551 30.1391L37.872 30.3908C37.0949 31.0815 36.0913 31.4631 35.0516 31.4631C31.6199 31.4631 28.8379 34.245 28.8379 37.6768V44.3175C28.8379 46.7276 28.8379 48.6168 29.0003 50.1157C29.166 51.6452 29.5102 52.8845 30.279 53.9427C30.7444 54.5833 31.3078 55.1466 31.9484 55.6121C33.0065 56.3809 34.2459 56.7251 35.7754 56.8908C37.2742 57.0532 39.1634 57.0532 41.5734 57.0532H44.317C46.727 57.0532 48.6163 57.0532 50.1151 56.8908C51.6447 56.7251 52.884 56.3809 53.9422 55.6121C54.5827 55.1466 55.1461 54.5833 55.6115 53.9427C56.3803 52.8845 56.7246 51.6452 56.8903 50.1157C57.0527 48.6169 57.0527 46.7277 57.0526 44.3176V37.6768C57.0526 34.245 54.2707 31.4631 50.8389 31.4631C49.7992 31.4631 48.7956 31.0815 48.0185 30.3908L47.7354 30.1391ZM39.4629 31.6103C41.4489 29.845 44.4416 29.845 46.4276 31.6103L46.7108 31.862C47.8482 32.8731 49.3171 33.4315 50.8389 33.4315C53.1835 33.4315 55.0842 35.3322 55.0842 37.6768V44.2581C55.0842 46.7405 55.0828 48.5232 54.9333 49.9036C54.7857 51.2657 54.5034 52.119 54.019 52.7857C53.675 53.2591 53.2586 53.6755 52.7851 54.0195C52.1185 54.5039 51.2652 54.7862 49.9031 54.9338C48.5226 55.0834 46.7399 55.0847 44.2576 55.0847H41.633C39.1506 55.0847 37.3679 55.0834 35.9874 54.9338C34.6254 54.7862 33.7721 54.5039 33.1054 54.0195C32.6319 53.6755 32.2155 53.2591 31.8715 52.7857C31.3872 52.119 31.1048 51.2657 30.9573 49.9036C30.8077 48.5232 30.8064 46.7405 30.8064 44.2581V37.6768C30.8064 35.3322 32.707 33.4315 35.0516 33.4315C36.5734 33.4315 38.0423 32.8731 39.1798 31.862L39.4629 31.6103Z" fill="#35CCCD"/>
<path d="M49.5068 37.6966C49.5068 38.4214 50.0944 39.0089 50.8191 39.0089C51.5439 39.0089 52.1315 38.4214 52.1315 37.6966C52.1315 36.9719 51.5439 36.3843 50.8191 36.3843C50.0944 36.3843 49.5068 36.9719 49.5068 37.6966Z" fill="#35CCCD"/>
</svg>
