<svg width="379" height="398" viewBox="0 0 379 398" fill="none" xmlns="http://www.w3.org/2000/svg">
<path fill-rule="evenodd" clip-rule="evenodd" d="M355.624 108.275C338.658 108.275 324.757 122.761 324.757 140.817H321.247C321.247 120.99 336.556 104.766 355.624 104.766C374.691 104.766 390 120.99 390 140.817H386.491C386.491 122.761 372.589 108.275 355.624 108.275ZM324.749 242.75C324.581 273.529 312.282 303.012 290.505 324.788C268.578 346.716 238.838 359.034 207.828 359.034V355.525C237.907 355.525 266.754 343.576 288.024 322.307C309.293 301.038 321.242 272.191 321.242 242.112H321.247L321.247 140.817H324.757V242.75H324.749ZM334.161 368.444C367.666 334.939 386.489 289.495 386.489 242.112H386.491V140.817H390L390 242.75H389.998C389.829 290.834 370.655 336.913 336.642 370.926C302.479 405.089 256.143 424.282 207.828 424.282V420.773C255.212 420.773 300.655 401.95 334.161 368.444Z" fill="#9A9DA1"/>
<circle cx="355.705" cy="34.7378" r="32.5419" transform="rotate(-90 355.705 34.7378)" stroke="#9A9DA1" stroke-width="3.50942"/>
<g filter="url(#filter0_d_1084_8399)">
<mask id="path-3-inside-1_1084_8399" fill="white">
<path fill-rule="evenodd" clip-rule="evenodd" d="M86.5932 133.64C86.5932 114.698 71.2381 99.343 52.2966 99.343C33.3551 99.343 18 114.698 18 133.64C18 152.581 33.3551 167.936 52.2966 167.936C71.2381 167.936 86.5932 152.581 86.5932 133.64ZM83.0822 234.58L83.0471 238.124H83.2664C84.1607 269.893 97.1712 300.173 119.707 322.709C142.754 345.756 173.902 358.841 206.459 359.191L207.578 359.262C223.655 360.283 236.382 373.65 236.382 389.987C236.382 406.323 223.655 419.69 207.578 420.711L206.651 420.77C206.533 420.769 206.415 420.768 206.298 420.768L206.25 420.767L206.202 420.768C206 420.772 205.797 420.774 205.594 420.774C205.091 420.774 204.591 420.762 204.094 420.738L204.046 420.736L203.998 420.735C156.002 419.755 110.181 400.263 76.1666 366.249C41.9353 332.018 22.412 285.828 21.6642 237.498L21.6621 237.359L21.6489 237.221C21.5567 236.25 21.5094 235.265 21.5094 234.268C21.5094 217.265 35.2933 203.481 52.2966 203.481C69.2999 203.481 83.0838 217.265 83.0838 234.268C83.0838 234.372 83.0833 234.476 83.0822 234.58ZM86.5922 234.615H86.5915C86.5926 234.499 86.5932 234.384 86.5932 234.268C86.5932 234.152 86.5926 234.037 86.5915 233.921C86.4054 215.14 71.1224 199.972 52.2966 199.972C33.3551 199.972 18 215.327 18 234.268C18 235.376 18.0525 236.472 18.1552 237.553C18.9171 286.793 38.8084 333.854 73.685 368.73C108.34 403.386 155.026 423.245 203.926 424.243C204.048 424.249 204.169 424.254 204.291 424.259C204.673 424.273 205.056 424.281 205.441 424.283C205.492 424.283 205.543 424.283 205.594 424.283L205.677 424.283L205.747 424.283C205.922 424.282 206.096 424.28 206.269 424.277C206.78 424.281 207.29 424.283 207.801 424.283V424.214C225.714 423.076 239.891 408.187 239.891 389.987C239.891 371.786 225.714 356.897 207.801 355.76V355.689C175.69 355.689 144.894 342.933 122.188 320.227C99.4828 297.522 86.7268 266.727 86.7264 234.616V234.615H86.5922Z"/>
</mask>
<path d="M18 133.64H21.5094H18ZM83.0471 238.124L79.5378 238.09L79.5027 241.634H83.0471V238.124ZM83.0822 234.58L79.573 234.545V234.545L83.0822 234.58ZM83.2664 238.124L86.7744 238.026L86.6784 234.615H83.2664V238.124ZM119.707 322.709L117.225 325.19L119.707 322.709ZM206.459 359.191L206.681 355.689L206.589 355.683L206.497 355.682L206.459 359.191ZM207.578 359.262L207.801 355.76H207.801L207.578 359.262ZM207.578 420.711L207.356 417.209L207.356 417.209L207.578 420.711ZM206.651 420.77L206.629 424.279L206.751 424.28L206.873 424.272L206.651 420.77ZM206.298 420.768L206.269 424.277H206.269L206.298 420.768ZM206.25 420.767L206.279 417.258L206.231 417.257L206.183 417.258L206.25 420.767ZM206.202 420.768L206.135 417.259L206.134 417.259L206.202 420.768ZM204.094 420.738L203.925 424.243L203.926 424.243L204.094 420.738ZM204.046 420.736L204.215 417.23L204.166 417.228L204.117 417.227L204.046 420.736ZM203.998 420.735L203.926 424.243H203.927L203.998 420.735ZM76.1666 366.249L78.6481 363.767L76.1666 366.249ZM21.6642 237.498L25.1732 237.444L21.6642 237.498ZM21.6621 237.359L25.1711 237.305L25.1689 237.166L25.1558 237.027L21.6621 237.359ZM21.6489 237.221L18.1552 237.553H18.1552L21.6489 237.221ZM21.5094 234.268H25.0188H21.5094ZM86.5915 234.615L83.0822 234.58L83.0471 238.124H86.5915V234.615ZM86.5915 233.921L83.0822 233.956V233.956L86.5915 233.921ZM18 234.268H21.5094H18ZM18.1552 237.553L21.6642 237.499L21.6621 237.359L21.6489 237.221L18.1552 237.553ZM73.685 368.73L76.1666 366.249L73.685 368.73ZM203.926 424.243L204.094 420.738L204.046 420.736L203.998 420.735L203.926 424.243ZM204.291 424.259L204.422 420.752L204.422 420.752L204.291 424.259ZM205.441 424.283L205.426 427.792H205.427L205.441 424.283ZM205.594 424.283V427.793H205.598L205.594 424.283ZM205.677 424.283L205.681 427.793L205.689 427.793L205.677 424.283ZM205.747 424.283L205.76 427.792H205.763L205.747 424.283ZM206.269 424.277L206.298 420.767L206.25 420.767L206.201 420.768L206.269 424.277ZM207.801 424.283V427.792H211.31V424.283H207.801ZM207.801 424.214L207.578 420.711L204.291 420.92V424.214H207.801ZM207.801 355.76H204.291V359.053L207.578 359.262L207.801 355.76ZM207.801 355.689H211.31V352.18H207.801L207.801 355.689ZM122.188 320.227L124.67 317.746L122.188 320.227ZM86.7264 234.616H83.217V234.616L86.7264 234.616ZM86.7264 234.615H90.2359L90.2359 231.105H86.7264L86.7264 234.615ZM52.2966 102.852C69.2999 102.852 83.0838 116.636 83.0838 133.64H90.1026C90.1026 112.76 73.1763 95.8336 52.2966 95.8336V102.852ZM21.5094 133.64C21.5094 116.636 35.2933 102.852 52.2966 102.852V95.8336C31.4169 95.8336 14.4906 112.76 14.4906 133.64L21.5094 133.64ZM52.2966 164.427C35.2933 164.427 21.5094 150.643 21.5094 133.64H14.4906C14.4906 154.519 31.4169 171.446 52.2966 171.446L52.2966 164.427ZM83.0838 133.64C83.0838 150.643 69.2999 164.427 52.2966 164.427L52.2966 171.446C73.1763 171.446 90.1026 154.519 90.1026 133.64H83.0838ZM86.5563 238.159L86.5915 234.615L79.573 234.545L79.5378 238.09L86.5563 238.159ZM83.2664 234.615H83.0471V241.634H83.2664V234.615ZM122.188 320.227C100.288 298.327 87.6436 268.9 86.7744 238.026L79.7584 238.223C80.6779 270.887 94.0549 302.02 117.225 325.19L122.188 320.227ZM206.497 355.682C174.857 355.342 144.587 342.626 122.188 320.227L117.225 325.19C140.922 348.887 172.947 362.34 206.421 362.7L206.497 355.682ZM207.801 355.76L206.681 355.689L206.237 362.694L207.356 362.765L207.801 355.76ZM239.891 389.987C239.891 371.787 225.714 356.897 207.801 355.76L207.356 362.765C221.596 363.669 232.872 375.513 232.872 389.987H239.891ZM207.801 424.214C225.714 423.076 239.891 408.187 239.891 389.987H232.872C232.872 404.46 221.596 416.305 207.356 417.209L207.801 424.214ZM206.873 424.272L207.801 424.214L207.356 417.209L206.428 417.268L206.873 424.272ZM206.269 424.277C206.39 424.278 206.509 424.279 206.629 424.279L206.673 417.261C206.557 417.26 206.441 417.259 206.326 417.258L206.269 424.277ZM206.221 424.276L206.269 424.277L206.327 417.258L206.279 417.258L206.221 424.276ZM206.268 424.277L206.316 424.276L206.183 417.258L206.135 417.259L206.268 424.277ZM205.594 424.283C205.82 424.283 206.045 424.281 206.269 424.277L206.134 417.259C205.955 417.263 205.775 417.264 205.594 417.264V424.283ZM203.926 424.243C204.479 424.27 205.035 424.283 205.594 424.283V417.264C205.147 417.264 204.703 417.254 204.262 417.233L203.926 424.243ZM203.877 424.241L203.925 424.243L204.263 417.233L204.215 417.23L203.877 424.241ZM203.927 424.243L203.975 424.244L204.117 417.227L204.069 417.226L203.927 424.243ZM73.685 368.73C108.34 403.386 155.026 423.245 203.926 424.243L204.069 417.226C156.979 416.265 112.021 397.14 78.6481 363.767L73.685 368.73ZM18.1552 237.553C18.9171 286.793 38.8084 333.854 73.685 368.73L78.6481 363.767C45.0621 330.181 25.9069 284.862 25.1732 237.444L18.1552 237.553ZM18.1531 237.414L18.1552 237.553L25.1732 237.444L25.1711 237.305L18.1531 237.414ZM18.1552 237.553L18.1684 237.691L25.1558 237.027L25.1426 236.889L18.1552 237.553ZM18 234.268C18 235.376 18.0525 236.472 18.1552 237.553L25.1426 236.889C25.0608 236.028 25.0188 235.154 25.0188 234.268H18ZM52.2966 199.972C33.3551 199.972 18 215.327 18 234.268H25.0188C25.0188 219.203 37.2315 206.99 52.2966 206.99V199.972ZM86.5932 234.268C86.5932 215.327 71.2381 199.972 52.2966 199.972V206.99C67.3617 206.99 79.5744 219.203 79.5744 234.268H86.5932ZM86.5915 234.615C86.5926 234.5 86.5932 234.384 86.5932 234.268H79.5744C79.5744 234.361 79.5739 234.453 79.573 234.545L86.5915 234.615ZM86.5915 238.124H86.5922L86.5922 231.105H86.5915L86.5915 238.124ZM83.0838 234.268C83.0838 234.372 83.0833 234.476 83.0822 234.58L90.1007 234.65C90.102 234.523 90.1026 234.395 90.1026 234.268H83.0838ZM83.0822 233.956C83.0833 234.06 83.0838 234.164 83.0838 234.268H90.1026C90.1026 234.141 90.102 234.014 90.1007 233.887L83.0822 233.956ZM52.2966 203.481C69.1958 203.481 82.9152 217.097 83.0822 233.956L90.1007 233.887C89.8956 213.182 73.0489 196.462 52.2966 196.462V203.481ZM21.5094 234.268C21.5094 217.265 35.2933 203.481 52.2966 203.481V196.462C31.4169 196.462 14.4906 213.389 14.4906 234.268H21.5094ZM21.6489 237.221C21.5567 236.25 21.5094 235.265 21.5094 234.268H14.4906C14.4906 235.487 14.5484 236.694 14.6616 237.885L21.6489 237.221ZM76.1666 366.249C41.9353 332.018 22.412 285.828 21.6642 237.499L14.6462 237.607C15.4222 287.759 35.6815 335.69 71.2035 371.212L76.1666 366.249ZM203.998 420.735C156.002 419.755 110.181 400.263 76.1666 366.249L71.2035 371.212C106.5 406.509 154.049 426.736 203.854 427.752L203.998 420.735ZM204.422 420.752C204.313 420.748 204.203 420.743 204.094 420.738L203.758 427.749C203.892 427.755 204.026 427.761 204.16 427.766L204.422 420.752ZM205.457 420.774C205.11 420.772 204.766 420.765 204.422 420.752L204.16 427.766C204.58 427.782 205.002 427.791 205.426 427.792L205.457 420.774ZM205.594 420.774C205.549 420.774 205.503 420.774 205.456 420.774L205.427 427.792C205.482 427.793 205.538 427.793 205.594 427.793V420.774ZM205.673 420.774L205.59 420.774L205.598 427.793L205.681 427.793L205.673 420.774ZM205.735 420.774L205.665 420.774L205.689 427.793L205.76 427.792L205.735 420.774ZM206.201 420.768C206.045 420.771 205.889 420.773 205.732 420.774L205.763 427.792C205.955 427.792 206.146 427.789 206.337 427.786L206.201 420.768ZM207.801 420.774C207.299 420.774 206.798 420.772 206.298 420.767L206.241 427.786C206.761 427.79 207.28 427.792 207.801 427.792V420.774ZM204.291 424.214V424.283H211.31V424.214H204.291ZM236.382 389.987C236.382 406.323 223.655 419.69 207.578 420.711L208.023 427.716C227.773 426.462 243.4 410.051 243.4 389.987H236.382ZM207.578 359.262C223.655 360.283 236.382 373.65 236.382 389.987H243.4C243.4 369.923 227.773 353.511 208.023 352.257L207.578 359.262ZM204.291 355.689V355.76H211.31V355.689H204.291ZM119.707 322.709C143.071 346.073 174.759 359.198 207.801 359.198L207.801 352.18C176.621 352.18 146.717 339.793 124.67 317.746L119.707 322.709ZM83.217 234.616C83.2174 267.657 96.3431 299.345 119.707 322.709L124.67 317.746C102.622 295.698 90.2362 265.796 90.2359 234.616L83.217 234.616ZM83.217 234.615V234.616H90.2359V234.615H83.217ZM86.5922 238.124H86.7264L86.7264 231.105H86.5922L86.5922 238.124Z" fill="#9A9DA1" mask="url(#path-3-inside-1_1084_8399)"/>
</g>
<defs>
<filter id="filter0_d_1084_8399" x="0.755993" y="88.1607" width="256.379" height="359.428" filterUnits="userSpaceOnUse" color-interpolation-filters="sRGB">
<feFlood flood-opacity="0" result="BackgroundImageFix"/>
<feColorMatrix in="SourceAlpha" type="matrix" values="0 0 0 0 0 0 0 0 0 0 0 0 0 0 0 0 0 0 127 0" result="hardAlpha"/>
<feOffset dy="6.06172"/>
<feGaussianBlur stdDeviation="8.622"/>
<feComposite in2="hardAlpha" operator="out"/>
<feColorMatrix type="matrix" values="0 0 0 0 0 0 0 0 0 0 0 0 0 0 0 0 0 0 0.25 0"/>
<feBlend mode="normal" in2="BackgroundImageFix" result="effect1_dropShadow_1084_8399"/>
<feBlend mode="normal" in="SourceGraphic" in2="effect1_dropShadow_1084_8399" result="shape"/>
</filter>
</defs>
</svg>
