<svg width="18" height="23" viewBox="0 0 18 23" fill="none" xmlns="http://www.w3.org/2000/svg">
<path d="M15.5172 12.2795L16.26 12.3829L15.5172 12.2795ZM15.2549 14.1645L15.9977 14.2679L15.2549 14.1645ZM2.74514 14.1645L3.48798 14.0611L2.74514 14.1645ZM2.4828 12.2795L1.73996 12.3829L2.4828 12.2795ZM6.18365 21.2368L5.89206 21.9278L6.18365 21.2368ZM3.47508 18.0603L4.17907 17.8017L3.47508 18.0603ZM14.5249 18.0603L15.2289 18.319V18.319L14.5249 18.0603ZM11.8164 21.2368L11.5248 20.5458H11.5248L11.8164 21.2368ZM2.74664 8.42906C2.70746 8.0167 2.34142 7.71418 1.92906 7.75336C1.5167 7.79254 1.21418 8.15858 1.25336 8.57094L2.74664 8.42906ZM16.7466 8.57094C16.7858 8.15858 16.4833 7.79254 16.0709 7.75336C15.6586 7.71418 15.2925 8.0167 15.2534 8.42906L16.7466 8.57094ZM17 7.25C17.4142 7.25 17.75 6.91421 17.75 6.5C17.75 6.08579 17.4142 5.75 17 5.75V7.25ZM1 5.75C0.585786 5.75 0.25 6.08579 0.25 6.5C0.25 6.91421 0.585786 7.25 1 7.25V5.75ZM6.25 17.5C6.25 17.9142 6.58579 18.25 7 18.25C7.41421 18.25 7.75 17.9142 7.75 17.5H6.25ZM7.75 9.5C7.75 9.08579 7.41421 8.75 7 8.75C6.58579 8.75 6.25 9.08579 6.25 9.5H7.75ZM10.25 17.5C10.25 17.9142 10.5858 18.25 11 18.25C11.4142 18.25 11.75 17.9142 11.75 17.5H10.25ZM11.75 9.5C11.75 9.08579 11.4142 8.75 11 8.75C10.5858 8.75 10.25 9.08579 10.25 9.5H11.75ZM13 6.5V7.25H13.75V6.5H13ZM5 6.5H4.25V7.25H5V6.5ZM14.7744 12.1761L14.512 14.0611L15.9977 14.2679L16.26 12.3829L14.7744 12.1761ZM3.48798 14.0611L3.22564 12.1761L1.73996 12.3829L2.0023 14.2679L3.48798 14.0611ZM9 20.75C7.47083 20.75 6.92544 20.7358 6.47524 20.5458L5.89206 21.9278C6.68914 22.2642 7.60558 22.25 9 22.25V20.75ZM2.0023 14.2679C2.282 16.2777 2.43406 17.4017 2.77109 18.319L4.17907 17.8017C3.91156 17.0736 3.77851 16.1488 3.48798 14.0611L2.0023 14.2679ZM6.47524 20.5458C5.55279 20.1566 4.69496 19.2058 4.17907 17.8017L2.77109 18.319C3.3857 19.9918 4.48205 21.3328 5.89206 21.9278L6.47524 20.5458ZM14.512 14.0611C14.2215 16.1488 14.0884 17.0736 13.8209 17.8017L15.2289 18.319C15.5659 17.4017 15.718 16.2777 15.9977 14.2679L14.512 14.0611ZM9 22.25C10.3944 22.25 11.3109 22.2642 12.1079 21.9278L11.5248 20.5458C11.0746 20.7358 10.5292 20.75 9 20.75V22.25ZM13.8209 17.8017C13.305 19.2058 12.4472 20.1566 11.5248 20.5458L12.1079 21.9278C13.5179 21.3328 14.6143 19.9918 15.2289 18.319L13.8209 17.8017ZM3.22564 12.1761C3.00352 10.58 2.83766 9.38703 2.74664 8.42906L1.25336 8.57094C1.34819 9.56897 1.51961 10.7995 1.73996 12.3829L3.22564 12.1761ZM16.26 12.3829C16.4804 10.7995 16.6518 9.56896 16.7466 8.57094L15.2534 8.42906C15.1623 9.38702 14.9965 10.58 14.7744 12.1761L16.26 12.3829ZM17 5.75H1V7.25H17V5.75ZM7.75 17.5V9.5H6.25V17.5H7.75ZM11.75 17.5V9.5H10.25V17.5H11.75ZM12.25 5.5V6.5H13.75V5.5H12.25ZM13 5.75H5V7.25H13V5.75ZM5.75 6.5V5.5H4.25V6.5H5.75ZM9 2.25C10.7949 2.25 12.25 3.70507 12.25 5.5H13.75C13.75 2.87665 11.6234 0.75 9 0.75V2.25ZM9 0.75C6.37665 0.75 4.25 2.87665 4.25 5.5H5.75C5.75 3.70507 7.20507 2.25 9 2.25V0.75Z" fill="#F41F41"/>
</svg>
