<svg width="155" height="38" viewBox="0 0 155 38" fill="none" xmlns="http://www.w3.org/2000/svg">
<g clip-path="url(#clip0_502_2056)">
<path fill-rule="evenodd" clip-rule="evenodd" d="M3.285 19.2148C5.353 21.2828 8.146 22.4599 11.066 22.4992L11.217 22.5002H17.094C18.215 22.5001 19.123 21.592 19.123 20.4719C19.123 19.3517 18.215 18.4436 17.094 18.4436H11.217C9.318 18.4436 7.497 17.6891 6.154 16.3463C4.811 15.0035 4.057 13.1822 4.057 11.2832H0C0 14.2581 1.182 17.1112 3.285 19.2148Z" fill="url(#paint0_linear_502_2056)"/>
<path d="M23.0381 22.5C24.1583 22.5 25.0664 21.5919 25.0664 20.4717C25.0664 19.3515 24.1583 18.4434 23.0381 18.4434C21.9179 18.4434 21.0098 19.3515 21.0098 20.4717C21.0098 21.5919 21.9179 22.5 23.0381 22.5Z" fill="#EA63B9"/>
<g filter="url(#filter0_d_502_2056)">
<path fill-rule="evenodd" clip-rule="evenodd" d="M17.189 4.5566C18.309 4.5566 19.217 3.6485 19.217 2.5283C19.217 1.4081 18.309 0.5 17.189 0.5C16.069 0.5 15.16 1.4081 15.16 2.5283C15.16 3.6485 16.069 4.5566 17.189 4.5566ZM11.238 4.5566C12.358 4.5566 13.266 3.6485 13.266 2.5283C13.266 1.4081 12.358 0.5 11.238 0.5C11.172 0.5 11.108 0.503102 11.044 0.509102C8.132 0.554002 5.348 1.7304 3.285 3.7932C1.236 5.8426 0.0619989 8.6034 0.0019989 11.4952C0.000998901 11.528 0 11.5611 0 11.5943C0 11.6023 0 11.6103 0 11.6182C0 11.6237 0 11.6292 0 11.6348C0 11.6647 0 11.6947 0 11.7248H0.0039978C0.0709978 12.7842 0.952 13.6226 2.028 13.6226C3.105 13.6226 3.985 12.7842 4.053 11.7248H4.057C4.057 9.8257 4.811 8.0045 6.154 6.6616C7.497 5.3188 9.318 4.5644 11.217 4.5644V4.5565L11.238 4.5566Z" fill="url(#paint1_linear_502_2056)"/>
</g>
<path d="M41.8435 20.2812C37.0155 20.2812 33.9805 16.9648 33.9805 11.5391C33.9805 6.14844 37.0395 2.80864 41.8435 2.80864C45.7695 2.80864 48.7575 5.25784 49.1325 8.89064H46.1565C45.7575 6.76954 44.0355 5.37504 41.8435 5.37504C38.9375 5.37504 37.0745 7.76564 37.0745 11.5391C37.0745 15.3359 38.9255 17.7148 41.8555 17.7148C44.0935 17.7148 45.6995 16.5078 46.1685 14.4688H49.1325C48.6055 18.0898 45.8395 20.2812 41.8435 20.2812ZM56.6325 20.2461C52.9885 20.2461 50.6215 17.8203 50.6215 13.7891C50.6215 9.78124 53.0115 7.32034 56.6325 7.32034C60.2545 7.32034 62.6445 9.76954 62.6445 13.7891C62.6445 17.8203 60.2775 20.2461 56.6325 20.2461ZM56.6325 17.9375C58.4845 17.9375 59.6795 16.4375 59.6795 13.7891C59.6795 11.1523 58.4845 9.64064 56.6325 9.64064C54.7935 9.64064 53.5865 11.1523 53.5865 13.7891C53.5865 16.4375 54.7815 17.9375 56.6325 17.9375ZM64.5195 20V7.57814H67.3205V9.71094H67.3795C68.0475 8.23444 69.3715 7.34384 71.2815 7.34384C74.0235 7.34384 75.5825 9.10164 75.5825 11.9727V20H72.6645V12.5586C72.6645 10.8008 71.8435 9.81644 70.1795 9.81644C68.5045 9.81644 67.4375 11.0234 67.4375 12.8047V20H64.5195ZM77.9255 20V7.57814H80.7265V9.71094H80.7855C81.4535 8.23444 82.7775 7.34384 84.6875 7.34384C87.4295 7.34384 88.9885 9.10164 88.9885 11.9727V20H86.0705V12.5586C86.0705 10.8008 85.2505 9.81644 83.5865 9.81644C81.9105 9.81644 80.8435 11.0234 80.8435 12.8047V20H77.9255ZM96.6875 9.58204C95.0475 9.58204 93.8635 10.8359 93.7465 12.5703H99.5475C99.4885 10.8125 98.3635 9.58204 96.6875 9.58204ZM99.5585 16.2852H102.289C101.914 18.6289 99.7345 20.2461 96.7935 20.2461C93.0665 20.2461 90.8165 17.7969 90.8165 13.8359C90.8165 9.91024 93.0895 7.32034 96.6755 7.32034C100.203 7.32034 102.406 9.76954 102.406 13.543V14.4922H93.7225V14.668C93.7225 16.6602 94.9415 17.9961 96.8515 17.9961C98.2115 17.9961 99.2425 17.3164 99.5585 16.2852ZM115.238 12.0078H112.484C112.25 10.6836 111.324 9.68754 109.765 9.68754C107.925 9.68754 106.742 11.2344 106.742 13.7891C106.742 16.3906 107.937 17.8906 109.789 17.8906C111.265 17.8906 112.226 17.0469 112.496 15.6406H115.25C115.015 18.418 112.871 20.2461 109.754 20.2461C106.121 20.2461 103.777 17.8203 103.777 13.7891C103.777 9.81644 106.121 7.32034 109.73 7.32034C113.011 7.32034 115.039 9.39454 115.238 12.0078ZM117.804 4.67194H120.722V7.57814H123.066V9.82814H120.722V16.2852C120.722 17.3047 121.191 17.7734 122.222 17.7734C122.492 17.7734 122.867 17.75 123.054 17.7148V19.9414C122.738 20.0117 122.164 20.0586 121.543 20.0586C118.859 20.0586 117.804 19.1094 117.804 16.6953V9.82814H116.023V7.57814H117.804V4.67194ZM125.129 20V7.57814H128.047V20H125.129ZM126.582 5.94924C125.679 5.94924 124.964 5.24614 124.964 4.36724C124.964 3.47664 125.679 2.77344 126.582 2.77344C127.496 2.77344 128.211 3.47664 128.211 4.36724C128.211 5.24614 127.496 5.94924 126.582 5.94924ZM131.304 20V9.82814H129.605V7.61334H131.304V6.51174C131.304 4.09774 132.453 2.96094 135.148 2.96094C135.722 2.96094 136.355 3.01954 136.718 3.08984V5.12894C136.472 5.09384 136.132 5.05864 135.793 5.05864C134.679 5.05864 134.175 5.58594 134.175 6.59384V7.61334H136.66V9.82814H134.222V20H131.304ZM139.964 24.6172C139.8 24.6172 138.968 24.6055 138.816 24.5703V22.2617C138.968 22.2969 139.484 22.3086 139.66 22.3086C140.867 22.3086 141.488 21.8516 141.816 20.7031C141.816 20.668 141.992 20.0469 141.98 20.0117L137.562 7.57814H140.75L143.679 17.5156H143.726L146.656 7.57814H149.726L145.238 20.4922C144.172 23.5742 142.8 24.6172 139.964 24.6172Z" fill="#F5FEF9"/>
<path d="M151.519 20.1289C150.57 20.1289 149.832 19.3906 149.832 18.4414C149.832 17.5039 150.57 16.7539 151.519 16.7539C152.457 16.7539 153.195 17.5039 153.195 18.4414C153.195 19.3906 152.457 20.1289 151.519 20.1289Z" fill="#35CCCD"/>
<path d="M73.3428 34.4492H74.0498C74.1168 35.0586 74.6948 35.4609 75.4998 35.4609C76.2608 35.4609 76.8158 35.0586 76.8158 34.5039C76.8158 34.0273 76.4838 33.7344 75.7258 33.5391L75.0038 33.3516C73.9638 33.0859 73.5038 32.6289 73.5038 31.8633C73.5038 30.9258 74.3238 30.2695 75.4958 30.2695C76.6168 30.2695 77.4288 30.9336 77.4608 31.8789H76.7568C76.6948 31.2734 76.2068 30.9023 75.4718 30.9023C74.7418 30.9023 74.2338 31.2812 74.2338 31.832C74.2338 32.2578 74.5468 32.5117 75.3118 32.7109L75.9018 32.8672C77.0698 33.1602 77.5428 33.6094 77.5428 34.418C77.5428 35.4492 76.7298 36.0938 75.4328 36.0938C74.2378 36.0938 73.4098 35.4453 73.3428 34.4492ZM78.2928 36V31.9375H78.9718V36H78.2928ZM78.6318 31.2539C78.4018 31.2539 78.2108 31.0625 78.2108 30.832C78.2108 30.5977 78.4018 30.4102 78.6318 30.4102C78.8668 30.4102 79.0578 30.5977 79.0578 30.832C79.0578 31.0625 78.8668 31.2539 78.6318 31.2539ZM79.8898 36V31.9375H80.5308V32.5859H80.5468C80.7378 32.1562 81.1518 31.8672 81.6988 31.8672C82.2538 31.8672 82.6638 32.1484 82.8388 32.6406H82.8548C83.0818 32.1562 83.5578 31.8672 84.1288 31.8672C84.9328 31.8672 85.4528 32.3906 85.4528 33.1953V36H84.7728V33.3516C84.7728 32.7969 84.4638 32.4688 83.9288 32.4688C83.3898 32.4688 83.0108 32.8672 83.0108 33.418V36H82.3318V33.2773C82.3318 32.7891 82.0038 32.4688 81.4998 32.4688C80.9608 32.4688 80.5698 32.8906 80.5698 33.4531V36H79.8898ZM88.2928 31.8672C89.3278 31.8672 90.0308 32.6953 90.0308 33.9688C90.0308 35.2422 89.3318 36.0703 88.3078 36.0703C87.7258 36.0703 87.2568 35.7852 87.0148 35.3398H86.9998V37.3555H86.3198V31.9375H86.9638V32.625H86.9798C87.2298 32.168 87.7028 31.8672 88.2928 31.8672ZM88.1598 35.4727C88.8818 35.4727 89.3358 34.8906 89.3358 33.9688C89.3358 33.0508 88.8818 32.4648 88.1598 32.4648C87.4638 32.4648 86.9958 33.0664 86.9958 33.9688C86.9958 34.875 87.4638 35.4727 88.1598 35.4727ZM90.7538 36V30.3633H91.4328V36H90.7538ZM92.3858 36V31.9375H93.0658V36H92.3858ZM92.7258 31.2539C92.4958 31.2539 92.3038 31.0625 92.3038 30.832C92.3038 30.5977 92.4958 30.4102 92.7258 30.4102C92.9608 30.4102 93.1518 30.5977 93.1518 30.832C93.1518 31.0625 92.9608 31.2539 92.7258 31.2539ZM94.2028 36V32.4961H93.6358V31.9375H94.2028V31.4844C94.2028 30.7031 94.5658 30.332 95.3158 30.332C95.4678 30.332 95.6318 30.3477 95.7298 30.3633V30.9141C95.6478 30.9023 95.5348 30.8906 95.4218 30.8906C95.0538 30.8906 94.8788 31.0859 94.8788 31.4883V31.9375H95.7108V32.4961H94.8818V36H94.2028ZM96.7498 37.5195C96.6678 37.5195 96.5308 37.5117 96.4568 37.4961V36.9258C96.5308 36.9414 96.6358 36.9453 96.7218 36.9453C97.1008 36.9453 97.3118 36.7617 97.4678 36.2891L97.5618 36.0039L96.0618 31.9375H96.7888L97.9138 35.3203H97.9248L99.0498 31.9375H99.7648L98.1678 36.2852C97.8198 37.2344 97.4838 37.5195 96.7498 37.5195ZM102.164 30.957H102.843V31.9375H103.632V32.4961H102.843V34.9102C102.843 35.2812 103 35.4492 103.347 35.4492C103.425 35.4492 103.582 35.4375 103.629 35.4297V36C103.547 36.0195 103.359 36.0312 103.199 36.0312C102.453 36.0312 102.164 35.7266 102.164 34.9453V32.4961H101.558V31.9375H102.164V30.957ZM104.394 36V30.3633H105.074V32.5859H105.089C105.316 32.1328 105.761 31.8672 106.379 31.8672C107.269 31.8672 107.808 32.4688 107.808 33.375V36H107.129V33.5C107.129 32.8555 106.804 32.4688 106.168 32.4688C105.492 32.4688 105.074 32.9297 105.074 33.6328V36H104.394ZM110.3 32.457C109.664 32.457 109.218 32.9453 109.175 33.6211H111.382C111.367 32.9414 110.941 32.457 110.3 32.457ZM111.367 34.8359H112.035C111.918 35.5469 111.23 36.0703 110.343 36.0703C109.179 36.0703 108.472 35.2617 108.472 33.9844C108.472 32.7227 109.191 31.8672 110.312 31.8672C111.41 31.8672 112.086 32.6641 112.086 33.8945V34.1523H109.172V34.1914C109.172 34.9688 109.629 35.4805 110.359 35.4805C110.875 35.4805 111.254 35.2188 111.367 34.8359ZM117.789 33.2695H117.125C117.027 32.8281 116.683 32.4648 116.086 32.4648C115.382 32.4648 114.906 33.0469 114.906 33.9688C114.906 34.9141 115.39 35.4727 116.093 35.4727C116.648 35.4727 117.011 35.1797 117.129 34.6914H117.797C117.691 35.5 117.011 36.0703 116.089 36.0703C114.964 36.0703 114.214 35.2773 114.214 33.9688C114.214 32.6875 114.961 31.8672 116.082 31.8672C117.097 31.8672 117.703 32.5391 117.789 33.2695ZM120.105 36.0703C118.98 36.0703 118.222 35.2617 118.222 33.9688C118.222 32.6719 118.98 31.8672 120.105 31.8672C121.226 31.8672 121.984 32.6719 121.984 33.9688C121.984 35.2617 121.226 36.0703 120.105 36.0703ZM120.105 35.4727C120.824 35.4727 121.293 34.9258 121.293 33.9688C121.293 33.0117 120.824 32.4648 120.105 32.4648C119.386 32.4648 118.914 33.0117 118.914 33.9688C118.914 34.9258 119.386 35.4727 120.105 35.4727ZM122.672 36V31.9375H123.312V32.5859H123.328C123.554 32.1484 123.988 31.8672 124.617 31.8672C125.507 31.8672 126.023 32.4414 126.023 33.3633V36H125.343V33.4844C125.343 32.8281 125.035 32.4688 124.41 32.4688C123.769 32.4688 123.351 32.9219 123.351 33.6094V36H122.672ZM126.89 36V31.9375H127.531V32.5859H127.547C127.773 32.1484 128.207 31.8672 128.836 31.8672C129.726 31.8672 130.242 32.4414 130.242 33.3633V36H129.562V33.4844C129.562 32.8281 129.254 32.4688 128.629 32.4688C127.988 32.4688 127.57 32.9219 127.57 33.6094V36H126.89ZM132.738 32.457C132.101 32.457 131.656 32.9453 131.613 33.6211H133.82C133.804 32.9414 133.379 32.457 132.738 32.457ZM133.804 34.8359H134.472C134.355 35.5469 133.668 36.0703 132.781 36.0703C131.617 36.0703 130.91 35.2617 130.91 33.9844C130.91 32.7227 131.629 31.8672 132.75 31.8672C133.847 31.8672 134.523 32.6641 134.523 33.8945V34.1523H131.609V34.1914C131.609 34.9688 132.066 35.4805 132.797 35.4805C133.312 35.4805 133.691 35.2188 133.804 34.8359ZM138.586 33.2695H137.922C137.824 32.8281 137.48 32.4648 136.882 32.4648C136.179 32.4648 135.703 33.0469 135.703 33.9688C135.703 34.9141 136.187 35.4727 136.89 35.4727C137.445 35.4727 137.808 35.1797 137.925 34.6914H138.593C138.488 35.5 137.808 36.0703 136.886 36.0703C135.761 36.0703 135.011 35.2773 135.011 33.9688C135.011 32.6875 135.757 31.8672 136.879 31.8672C137.894 31.8672 138.5 32.5391 138.586 33.2695ZM139.437 30.957H140.117V31.9375H140.906V32.4961H140.117V34.9102C140.117 35.2812 140.273 35.4492 140.621 35.4492C140.699 35.4492 140.855 35.4375 140.902 35.4297V36C140.82 36.0195 140.632 36.0312 140.472 36.0312C139.726 36.0312 139.437 35.7266 139.437 34.9453V32.4961H138.832V31.9375H139.437V30.957ZM141.668 36V31.9375H142.347V36H141.668ZM142.007 31.2539C141.777 31.2539 141.586 31.0625 141.586 30.832C141.586 30.5977 141.777 30.4102 142.007 30.4102C142.242 30.4102 142.433 30.5977 142.433 30.832C142.433 31.0625 142.242 31.2539 142.007 31.2539ZM144.949 36.0703C143.824 36.0703 143.066 35.2617 143.066 33.9688C143.066 32.6719 143.824 31.8672 144.949 31.8672C146.07 31.8672 146.828 32.6719 146.828 33.9688C146.828 35.2617 146.07 36.0703 144.949 36.0703ZM144.949 35.4727C145.668 35.4727 146.136 34.9258 146.136 33.9688C146.136 33.0117 145.668 32.4648 144.949 32.4648C144.23 32.4648 143.757 33.0117 143.757 33.9688C143.757 34.9258 144.23 35.4727 144.949 35.4727ZM147.515 36V31.9375H148.156V32.5859H148.172C148.398 32.1484 148.832 31.8672 149.461 31.8672C150.351 31.8672 150.867 32.4414 150.867 33.3633V36H150.187V33.4844C150.187 32.8281 149.879 32.4688 149.254 32.4688C148.613 32.4688 148.195 32.9219 148.195 33.6094V36H147.515ZM151.664 33.0586C151.664 32.3633 152.285 31.8672 153.179 31.8672C154.019 31.8672 154.636 32.3672 154.668 33.0547H154.019C153.972 32.6641 153.656 32.4219 153.156 32.4219C152.66 32.4219 152.332 32.668 152.332 33.0234C152.332 33.3047 152.547 33.4922 153.007 33.6094L153.636 33.7617C154.457 33.9688 154.754 34.2656 154.754 34.8633C154.754 35.5703 154.086 36.0703 153.136 36.0703C152.246 36.0703 151.625 35.5859 151.554 34.8672H152.234C152.308 35.2891 152.629 35.5156 153.179 35.5156C153.73 35.5156 154.07 35.2812 154.07 34.9141C154.07 34.625 153.902 34.4688 153.445 34.3477L152.73 34.1641C152.015 33.9805 151.664 33.6133 151.664 33.0586Z" fill="#F5FEF9"/>
</g>
<defs>
<filter id="filter0_d_502_2056" x="-108.1" y="-69.6" width="235.417" height="229.323" filterUnits="userSpaceOnUse" color-interpolation-filters="sRGB">
<feFlood flood-opacity="0" result="BackgroundImageFix"/>
<feColorMatrix in="SourceAlpha" type="matrix" values="0 0 0 0 0 0 0 0 0 0 0 0 0 0 0 0 0 0 127 0" result="hardAlpha"/>
<feOffset dy="38"/>
<feGaussianBlur stdDeviation="54.05"/>
<feComposite in2="hardAlpha" operator="out"/>
<feColorMatrix type="matrix" values="0 0 0 0 0 0 0 0 0 0 0 0 0 0 0 0 0 0 0.25 0"/>
<feBlend mode="normal" in2="BackgroundImageFix" result="effect1_dropShadow_502_2056"/>
<feBlend mode="normal" in="SourceGraphic" in2="effect1_dropShadow_502_2056" result="shape"/>
</filter>
<linearGradient id="paint0_linear_502_2056" x1="1.792" y1="12.1558" x2="18.675" y2="22.17" gradientUnits="userSpaceOnUse">
<stop stop-color="#35CCCD"/>
<stop offset="1" stop-color="#EA63B9"/>
</linearGradient>
<linearGradient id="paint1_linear_502_2056" x1="11.698" y1="0.499999" x2="0.542999" y2="11.4481" gradientUnits="userSpaceOnUse">
<stop offset="0.00449121" stop-color="#F0584F"/>
<stop offset="1" stop-color="#35CCCD"/>
</linearGradient>
<clipPath id="clip0_502_2056">
<rect width="155" height="38" fill="white"/>
</clipPath>
</defs>
</svg>
