<svg width="29" height="27" viewBox="0 0 29 27" fill="none" xmlns="http://www.w3.org/2000/svg">
<g id="Google__G__Logo 1">
<path id="Vector" d="M26.82 13.7708C26.82 12.9258 26.7383 12.1133 26.5867 11.3333H14.5V15.9483H21.4067C21.1033 17.4324 20.1933 18.6891 18.8283 19.5341V22.5349H22.9933C25.42 20.4549 26.82 17.3999 26.82 13.7708Z" fill="#4285F4"/>
<path id="Vector_2" d="M14.5 25.4166C17.965 25.4166 20.87 24.3549 22.9933 22.5349L18.8283 19.5341C17.685 20.2491 16.2267 20.6824 14.5 20.6824C11.1633 20.6824 8.32834 18.5916 7.31334 15.7749H3.04333V18.8516C5.155 22.7407 9.48334 25.4166 14.5 25.4166Z" fill="#34A853"/>
<path id="Vector_3" d="M7.31329 15.7642C7.05663 15.0492 6.90496 14.2908 6.90496 13.5C6.90496 12.7092 7.05663 11.9508 7.31329 11.2358V8.15918H3.04329C2.16829 9.76251 1.66663 11.5717 1.66663 13.5C1.66663 15.4283 2.16829 17.2375 3.04329 18.8408L6.36829 16.4358L7.31329 15.7642Z" fill="#FBBC05"/>
<path id="Vector_4" d="M14.5 6.32825C16.39 6.32825 18.07 6.93492 19.4117 8.10492L23.0867 4.69242C20.8583 2.76409 17.965 1.58325 14.5 1.58325C9.48334 1.58325 5.155 4.25909 3.04333 8.15908L7.31334 11.2358C8.32834 8.41908 11.1633 6.32825 14.5 6.32825Z" fill="#EA4335"/>
</g>
</svg>
