<svg width="212" height="44" viewBox="0 0 212 44" fill="none" xmlns="http://www.w3.org/2000/svg">
<path d="M20.6506 20.3681C19.7855 19.5078 19.25 18.3164 19.25 17C19.25 15.6836 19.7855 14.4922 20.6506 13.6319C20.1526 13.3873 19.5923 13.25 19 13.25C16.9289 13.25 15.25 14.9289 15.25 17C15.25 19.0711 16.9289 20.75 19 20.75C19.5923 20.75 20.1526 20.6127 20.6506 20.3681Z" fill="#FAFAFA"/>
<path d="M20.25 17C20.25 14.9289 21.9289 13.25 24 13.25C26.0711 13.25 27.75 14.9289 27.75 17C27.75 19.0711 26.0711 20.75 24 20.75C21.9289 20.75 20.25 19.0711 20.25 17Z" fill="#FAFAFA"/>
<path d="M27.3494 13.6319C28.2145 14.4922 28.75 15.6836 28.75 17C28.75 18.3164 28.2145 19.5078 27.3494 20.3681C27.8474 20.6127 28.4077 20.75 29 20.75C31.0711 20.75 32.75 19.0711 32.75 17C32.75 14.9289 31.0711 13.25 29 13.25C28.4077 13.25 27.8474 13.3873 27.3494 13.6319Z" fill="#FAFAFA"/>
<path d="M17.25 26C17.25 23.9289 18.9289 22.25 21 22.25H27C29.0711 22.25 30.75 23.9289 30.75 26C30.75 28.0711 29.0711 29.75 27 29.75H21C18.9289 29.75 17.25 28.0711 17.25 26Z" fill="#FAFAFA"/>
<path d="M12.25 25C12.25 22.9289 13.9289 21.25 16 21.25H21C18.3766 21.25 16.25 23.3766 16.25 26C16.25 27.0249 16.5746 27.9739 17.1266 28.75H16C13.9289 28.75 12.25 27.0711 12.25 25Z" fill="#FAFAFA"/>
<path d="M31.75 26C31.75 27.0249 31.4254 27.9739 30.8734 28.75H32C34.0711 28.75 35.75 27.0711 35.75 25C35.75 22.9289 34.0711 21.25 32 21.25H27C29.6234 21.25 31.75 23.3766 31.75 26Z" fill="#FAFAFA"/>
<path d="M80.0938 23.7266C80.0938 27.1631 78.0635 29.2109 74.627 29.2109C70.9971 29.2109 68.7119 26.6709 68.7119 22.6016C68.7119 18.6025 70.9883 16.1064 74.6006 16.1064C77.4219 16.1064 79.5576 17.7764 79.9971 20.3076H77.9756C77.501 18.7344 76.2617 17.8291 74.6094 17.8291C72.1836 17.8291 70.7246 19.6045 70.7246 22.584C70.7246 25.6162 72.2275 27.4883 74.6445 27.4883C76.7012 27.4883 78.125 26.1699 78.1514 24.2451V24.0254H74.873V22.4346H80.0938V23.7266ZM82.51 29V19.7539H84.3206V21.3271H84.3645C84.6721 20.2461 85.4983 19.6045 86.5882 19.6045C86.8606 19.6045 87.0979 19.6484 87.2386 19.6748V21.4414C87.0891 21.3799 86.7552 21.3359 86.386 21.3359C85.1643 21.3359 84.4085 22.1533 84.4085 23.4629V29H82.51ZM92.7046 29.1758C90.0591 29.1758 88.3189 27.3564 88.3189 24.377C88.3189 21.4062 90.0679 19.5869 92.7046 19.5869C95.3414 19.5869 97.0904 21.4062 97.0904 24.377C97.0904 27.3564 95.3502 29.1758 92.7046 29.1758ZM92.7046 27.6113C94.1988 27.6113 95.1568 26.4336 95.1568 24.377C95.1568 22.3291 94.19 21.1514 92.7046 21.1514C91.2193 21.1514 90.2525 22.3291 90.2525 24.377C90.2525 26.4336 91.2193 27.6113 92.7046 27.6113ZM107.206 19.7539V29H105.387V27.4355H105.343C104.833 28.543 103.892 29.167 102.477 29.167C100.465 29.167 99.2342 27.8574 99.2342 25.7393V19.7539H101.133V25.3701C101.133 26.7764 101.801 27.5322 103.11 27.5322C104.481 27.5322 105.307 26.583 105.307 25.1416V19.7539H107.206ZM114.623 19.6045C116.97 19.6045 118.517 21.4502 118.517 24.377C118.517 27.3037 116.979 29.1582 114.658 29.1582C113.331 29.1582 112.276 28.5078 111.749 27.4795H111.705V32.0586H109.807V19.7539H111.644V21.3447H111.679C112.224 20.2812 113.287 19.6045 114.623 19.6045ZM114.122 27.5498C115.625 27.5498 116.566 26.3193 116.566 24.377C116.566 22.4434 115.625 21.2041 114.122 21.2041C112.672 21.2041 111.696 22.4697 111.696 24.377C111.696 26.3018 112.663 27.5498 114.122 27.5498ZM120.537 22.373C120.537 20.7207 121.996 19.5869 124.159 19.5869C126.215 19.5869 127.657 20.7383 127.718 22.3818H125.934C125.846 21.5469 125.169 21.0283 124.106 21.0283C123.078 21.0283 122.392 21.5293 122.392 22.2588C122.392 22.8301 122.849 23.2168 123.807 23.4541L125.363 23.8145C127.226 24.2627 127.929 24.9658 127.929 26.3281C127.929 28.0156 126.356 29.1758 124.088 29.1758C121.9 29.1758 120.45 28.042 120.3 26.3457H122.181C122.33 27.2334 123.016 27.7256 124.176 27.7256C125.319 27.7256 126.022 27.251 126.022 26.5039C126.022 25.915 125.67 25.5898 124.704 25.3438L123.051 24.9395C121.381 24.5352 120.537 23.665 120.537 22.373Z" fill="#F5FEF9"/>
</svg>
