<svg width="182" height="194" viewBox="0 0 182 194" fill="none" xmlns="http://www.w3.org/2000/svg">
<path fill-rule="evenodd" clip-rule="evenodd" d="M29.2854 53.2146C31.3534 55.2826 34.1457 56.4597 37.0661 56.4989V56.4999H37.217H43.0943C43.0944 56.4999 43.0944 56.4999 43.0944 56.4999C44.2146 56.4999 45.1226 55.5918 45.1226 54.4716C45.1226 53.3515 44.2146 52.4434 43.0944 52.4433C43.0944 52.4433 43.0944 52.4433 43.0943 52.4433H37.217V52.4433C35.3179 52.4433 33.4967 51.6889 32.1539 50.3461C30.811 49.0033 30.0566 47.182 30.0566 45.283L26 45.283C26 48.2579 27.1818 51.111 29.2854 53.2146Z" fill="url(#paint0_linear_1220_16951)"/>
<circle cx="49.0381" cy="54.4717" r="2.0283" fill="#EA63B9"/>
<g filter="url(#filter0_d_1220_16951)">
<path fill-rule="evenodd" clip-rule="evenodd" d="M43.1885 38.5566C44.3087 38.5566 45.2168 37.6485 45.2168 36.5283C45.2168 35.4081 44.3087 34.5 43.1885 34.5C42.0683 34.5 41.1602 35.4081 41.1602 36.5283C41.1602 37.6485 42.0683 38.5566 43.1885 38.5566ZM37.2374 38.5566C38.3576 38.5566 39.2657 37.6485 39.2657 36.5283C39.2657 35.4081 38.3576 34.5 37.2374 34.5C37.1721 34.5 37.1075 34.5031 37.0438 34.5091C34.1315 34.554 31.348 35.7304 29.2852 37.7932C27.2358 39.8426 26.0613 42.6034 26.0022 45.4952C26.0006 45.528 25.9998 45.5611 25.9998 45.5943C25.9998 45.6023 25.9999 45.6103 25.9999 45.6182C26 45.6237 26.0001 45.6292 26.0002 45.6348C26 45.6647 25.9998 45.6947 25.9998 45.7248L26.0039 45.7248C26.0712 46.7842 26.9517 47.6226 28.0281 47.6226C29.1045 47.6226 29.985 46.7842 30.0523 45.7248L30.0565 45.7248C30.0565 43.8257 30.8109 42.0045 32.1537 40.6616C33.4965 39.3188 35.3178 38.5644 37.2168 38.5644L37.2168 38.5565L37.2374 38.5566Z" fill="url(#paint1_linear_1220_16951)"/>
</g>
<path d="M67.8438 54.2812C63.0156 54.2812 59.9805 50.9648 59.9805 45.5391C59.9805 40.1484 63.0391 36.8086 67.8438 36.8086C71.7695 36.8086 74.7578 39.2578 75.1328 42.8906H72.1562C71.7578 40.7695 70.0352 39.375 67.8438 39.375C64.9375 39.375 63.0742 41.7656 63.0742 45.5391C63.0742 49.3359 64.9258 51.7148 67.8555 51.7148C70.0938 51.7148 71.6992 50.5078 72.168 48.4688H75.1328C74.6055 52.0898 71.8398 54.2812 67.8438 54.2812ZM82.6328 54.2461C78.9883 54.2461 76.6211 51.8203 76.6211 47.7891C76.6211 43.7812 79.0117 41.3203 82.6328 41.3203C86.2539 41.3203 88.6445 43.7695 88.6445 47.7891C88.6445 51.8203 86.2773 54.2461 82.6328 54.2461ZM82.6328 51.9375C84.4844 51.9375 85.6797 50.4375 85.6797 47.7891C85.6797 45.1523 84.4844 43.6406 82.6328 43.6406C80.793 43.6406 79.5859 45.1523 79.5859 47.7891C79.5859 50.4375 80.7812 51.9375 82.6328 51.9375ZM90.5195 54V41.5781H93.3203V43.7109H93.3789C94.0469 42.2344 95.3711 41.3438 97.2812 41.3438C100.023 41.3438 101.582 43.1016 101.582 45.9727V54H98.6641V46.5586C98.6641 44.8008 97.8438 43.8164 96.1797 43.8164C94.5039 43.8164 93.4375 45.0234 93.4375 46.8047V54H90.5195ZM103.926 54V41.5781H106.727V43.7109H106.785C107.453 42.2344 108.777 41.3438 110.688 41.3438C113.43 41.3438 114.988 43.1016 114.988 45.9727V54H112.07V46.5586C112.07 44.8008 111.25 43.8164 109.586 43.8164C107.91 43.8164 106.844 45.0234 106.844 46.8047V54H103.926ZM122.688 43.582C121.047 43.582 119.863 44.8359 119.746 46.5703H125.547C125.488 44.8125 124.363 43.582 122.688 43.582ZM125.559 50.2852H128.289C127.914 52.6289 125.734 54.2461 122.793 54.2461C119.066 54.2461 116.816 51.7969 116.816 47.8359C116.816 43.9102 119.09 41.3203 122.676 41.3203C126.203 41.3203 128.406 43.7695 128.406 47.543V48.4922H119.723V48.668C119.723 50.6602 120.941 51.9961 122.852 51.9961C124.211 51.9961 125.242 51.3164 125.559 50.2852ZM141.238 46.0078H138.484C138.25 44.6836 137.324 43.6875 135.766 43.6875C133.926 43.6875 132.742 45.2344 132.742 47.7891C132.742 50.3906 133.938 51.8906 135.789 51.8906C137.266 51.8906 138.227 51.0469 138.496 49.6406H141.25C141.016 52.418 138.871 54.2461 135.754 54.2461C132.121 54.2461 129.777 51.8203 129.777 47.7891C129.777 43.8164 132.121 41.3203 135.73 41.3203C139.012 41.3203 141.039 43.3945 141.238 46.0078ZM143.805 38.6719H146.723V41.5781H149.066V43.8281H146.723V50.2852C146.723 51.3047 147.191 51.7734 148.223 51.7734C148.492 51.7734 148.867 51.75 149.055 51.7148V53.9414C148.738 54.0117 148.164 54.0586 147.543 54.0586C144.859 54.0586 143.805 53.1094 143.805 50.6953V43.8281H142.023V41.5781H143.805V38.6719ZM151.129 54V41.5781H154.047V54H151.129ZM152.582 39.9492C151.68 39.9492 150.965 39.2461 150.965 38.3672C150.965 37.4766 151.68 36.7734 152.582 36.7734C153.496 36.7734 154.211 37.4766 154.211 38.3672C154.211 39.2461 153.496 39.9492 152.582 39.9492ZM157.305 54V43.8281H155.605V41.6133H157.305V40.5117C157.305 38.0977 158.453 36.9609 161.148 36.9609C161.723 36.9609 162.355 37.0195 162.719 37.0898V39.1289C162.473 39.0938 162.133 39.0586 161.793 39.0586C160.68 39.0586 160.176 39.5859 160.176 40.5938V41.6133H162.66V43.8281H160.223V54H157.305ZM165.965 58.6172C165.801 58.6172 164.969 58.6055 164.816 58.5703V56.2617C164.969 56.2969 165.484 56.3086 165.66 56.3086C166.867 56.3086 167.488 55.8516 167.816 54.7031C167.816 54.668 167.992 54.0469 167.98 54.0117L163.562 41.5781H166.75L169.68 51.5156H169.727L172.656 41.5781H175.727L171.238 54.4922C170.172 57.5742 168.801 58.6172 165.965 58.6172Z" fill="#F5FEF9"/>
<path d="M177.52 54.1289C176.57 54.1289 175.832 53.3906 175.832 52.4414C175.832 51.5039 176.57 50.7539 177.52 50.7539C178.457 50.7539 179.195 51.5039 179.195 52.4414C179.195 53.3906 178.457 54.1289 177.52 54.1289Z" fill="#35CCCD"/>
<defs>
<filter id="filter0_d_1220_16951" x="-82.1" y="-35.6" width="235.417" height="229.323" filterUnits="userSpaceOnUse" color-interpolation-filters="sRGB">
<feFlood flood-opacity="0" result="BackgroundImageFix"/>
<feColorMatrix in="SourceAlpha" type="matrix" values="0 0 0 0 0 0 0 0 0 0 0 0 0 0 0 0 0 0 127 0" result="hardAlpha"/>
<feOffset dy="38"/>
<feGaussianBlur stdDeviation="54.05"/>
<feComposite in2="hardAlpha" operator="out"/>
<feColorMatrix type="matrix" values="0 0 0 0 0 0 0 0 0 0 0 0 0 0 0 0 0 0 0.25 0"/>
<feBlend mode="normal" in2="BackgroundImageFix" result="effect1_dropShadow_1220_16951"/>
<feBlend mode="normal" in="SourceGraphic" in2="effect1_dropShadow_1220_16951" result="shape"/>
</filter>
<linearGradient id="paint0_linear_1220_16951" x1="27.7925" y1="46.1556" x2="44.6745" y2="56.1698" gradientUnits="userSpaceOnUse">
<stop stop-color="#35CCCD"/>
<stop offset="1" stop-color="#EA63B9"/>
</linearGradient>
<linearGradient id="paint1_linear_1220_16951" x1="37.6979" y1="34.5" x2="26.5423" y2="45.4481" gradientUnits="userSpaceOnUse">
<stop offset="0.00449121" stop-color="#F0584F"/>
<stop offset="1" stop-color="#35CCCD"/>
</linearGradient>
</defs>
</svg>
