<svg width="22" height="21" viewBox="0 0 22 21" fill="none" xmlns="http://www.w3.org/2000/svg">
<g id="Home 1">
<path id="Vector" d="M5.29318 2.96556C7.95999 1.028 9.2934 0.0592252 10.8162 0.00336104C10.9384 -0.00112035 11.0607 -0.00112035 11.1828 0.00336104C12.7056 0.0592252 14.039 1.028 16.7059 2.96556C19.3727 4.90311 20.7061 5.87189 21.2298 7.30291C21.2718 7.41771 21.3096 7.534 21.3431 7.65157C21.7605 9.11711 21.2512 10.6846 20.2326 13.8197L18.5115 19.1164C18.2381 19.958 17.4538 20.5279 16.5689 20.5279C15.4408 20.5279 14.5262 19.6133 14.5262 18.4852V15.7363C14.5262 14.6778 13.6681 13.8197 12.6096 13.8197H9.38944C8.33091 13.8197 7.47281 14.6778 7.47281 15.7363V18.4852C7.47281 19.6133 6.55828 20.5279 5.43016 20.5279C4.54524 20.5279 3.76095 19.958 3.48749 19.1164L1.76647 13.8197C0.747834 10.6846 0.238517 9.11711 0.655963 7.65157C0.68945 7.534 0.727238 7.41771 0.769249 7.30291C1.29295 5.87189 2.62636 4.90311 5.29318 2.96556Z" fill="#35CCCD"/>
</g>
</svg>
