<svg width="24" height="25" viewBox="0 0 24 25" fill="none" xmlns="http://www.w3.org/2000/svg">
<path d="M9 21L11.6727 16.2714C11.8024 16.0419 11.9163 15.8404 12.0182 15.6622M12.0182 15.6622C12.3341 15.1097 12.535 14.7806 12.7358 14.5336C14.3978 12.4885 17.3618 12.0845 19.5106 13.6101C19.8516 13.8522 20.2309 14.2309 20.985 14.985M12.0182 15.6622L11.5 15.5C10.3045 15.2609 9.70672 15.1413 9.15808 15.153C7.68985 15.1842 6.30956 15.8593 5.38354 16.9991C5.03751 17.425 4.76489 17.9702 4.21965 19.0607L4.10982 19.2804L3.98875 19.4849M20.985 14.985C21 14.2605 21 13.439 21 12.5C21 8.75027 21 6.8754 20.0451 5.56107C19.7367 5.1366 19.3634 4.76331 18.9389 4.45491C17.6246 3.5 15.7497 3.5 12 3.5C8.25027 3.5 6.3754 3.5 5.06107 4.45491C4.6366 4.76331 4.26331 5.1366 3.95491 5.56107C3 6.8754 3 8.75027 3 12.5C3 16.2497 3 18.1246 3.95491 19.4389C3.96611 19.4543 3.97738 19.4697 3.98875 19.4849M20.985 14.985C20.9401 17.1536 20.7609 18.4537 20.0451 19.4389C19.7367 19.8634 19.3634 20.2367 18.9389 20.5451C17.6246 21.5 15.7497 21.5 12 21.5C8.25027 21.5 6.3754 21.5 5.06107 20.5451C4.652 20.2479 4.29047 19.8904 3.98875 19.4849M9 9.5C9 10.6046 9.89543 11.5 11 11.5C12.1046 11.5 13 10.6046 13 9.5C13 8.39543 12.1046 7.5 11 7.5C9.89543 7.5 9 8.39543 9 9.5Z" stroke="#35CCCD" stroke-width="1.5" stroke-linecap="round"/>
</svg>
