<svg width="26" height="26" viewBox="0 0 26 26" fill="none" xmlns="http://www.w3.org/2000/svg">
<g id="Image 2">
<path id="Vector" fill-rule="evenodd" clip-rule="evenodd" d="M7.04864 0.164971C8.57148 -1.93318e-05 10.491 -1.06715e-05 12.9397 1.75466e-07H13.0603C15.509 -1.06715e-05 17.4285 -1.93318e-05 18.9514 0.164971C20.5054 0.333342 21.7646 0.683099 22.8397 1.4642C23.4905 1.93708 24.0629 2.50945 24.5358 3.16031C25.3169 4.23541 25.6667 5.49459 25.835 7.04864C26 8.57146 26 10.491 26 12.9396V13.008C26 14.2537 26 15.3576 25.9798 16.334C25.9203 19.2061 25.6956 21.2433 24.5358 22.8397C24.0629 23.4905 23.4905 24.0629 22.8397 24.5358C21.7646 25.3169 20.5054 25.6667 18.9514 25.835C17.4285 26 15.5091 26 13.0605 26H12.9396C10.491 26 8.57146 26 7.04863 25.835C5.49459 25.6667 4.23541 25.3169 3.16031 24.5358C2.53307 24.0801 1.97873 23.532 1.51608 22.9102C1.49865 22.8868 1.48136 22.8633 1.4642 22.8397C0.683099 21.7646 0.333342 20.5054 0.164971 18.9514C-1.93516e-05 17.4285 -1.06924e-05 15.509 1.75982e-07 13.0603V12.9397C-1.03532e-05 10.491 -1.85966e-05 8.57148 0.164971 7.04864C0.333342 5.49459 0.683099 4.23541 1.4642 3.16031C1.93708 2.50945 2.50946 1.93708 3.16031 1.4642C4.23541 0.683099 5.49459 0.333342 7.04864 0.164971ZM23.9938 15.3356L23.9097 15.2544C23.5418 14.9009 23.2699 14.6618 23.0142 14.4802C20.1491 12.446 16.1971 12.9847 13.981 15.7115C13.7134 16.0408 13.4455 16.4796 13.0243 17.2163L12.3333 17C10.7393 16.6812 9.94229 16.5218 9.21078 16.5373C7.25313 16.5789 5.41274 17.479 4.17805 18.9988C3.76645 19.5054 3.43275 20.1386 2.84935 21.3017C2.92131 21.429 2.99882 21.5493 3.08224 21.6641L3.12058 21.7163C3.46254 22.1758 3.87227 22.5809 4.33588 22.9178C5.01322 23.4099 5.88018 23.6967 7.26406 23.8467C8.66666 23.9986 10.4779 24 13 24C15.5221 24 17.3333 23.9986 18.7359 23.8467C20.1198 23.6967 20.9868 23.4099 21.6641 22.9178C22.1452 22.5682 22.5682 22.1452 22.9178 21.6641C23.6667 20.6334 23.92 19.2035 23.9802 16.2926C23.9865 15.9874 23.9908 15.6688 23.9938 15.3356ZM11.6667 11.6667C10.1939 11.6667 9 10.4728 9 9C9 7.52724 10.1939 6.33333 11.6667 6.33333C13.1394 6.33333 14.3333 7.52724 14.3333 9C14.3333 10.4728 13.1394 11.6667 11.6667 11.6667Z" fill="#F5FEF9"/>
</g>
</svg>
