<svg width="212" height="44" viewBox="0 0 212 44" fill="none" xmlns="http://www.w3.org/2000/svg">
<path fill-rule="evenodd" clip-rule="evenodd" d="M20.0956 30.8906C24.0054 33.3067 28.8228 31.3427 31.0944 29.0711C34.9997 25.1658 34.9997 18.8342 31.0944 14.9289C27.1892 11.0237 20.8575 11.0237 16.9523 14.9289C14.5839 17.2973 12.7076 22.0269 15.132 25.9282C15.2663 26.1442 15.3334 26.2523 15.3663 26.3347C15.4289 26.4919 15.4473 26.6126 15.4343 26.7812C15.4275 26.8697 15.4016 26.9697 15.3498 27.1696C15.0238 28.4274 14.8608 29.0563 14.953 29.5094C15.113 30.2958 15.7276 30.9103 16.514 31.0704C16.967 31.1626 17.5959 30.9996 18.8537 30.6736C19.0536 30.6218 19.1536 30.5958 19.2418 30.589C19.4104 30.576 19.5297 30.594 19.687 30.6563C19.7693 30.6889 19.878 30.7561 20.0956 30.8906ZM21.0527 21.8578C21.0527 22.4101 20.605 22.8578 20.0527 22.8578C19.5004 22.8578 19.0527 22.4101 19.0527 21.8578C19.0527 21.3055 19.5004 20.8578 20.0527 20.8578C20.605 20.8578 21.0527 21.3055 21.0527 21.8578ZM25.0527 21.8578C25.0527 22.4101 24.605 22.8578 24.0527 22.8578C23.5005 22.8578 23.0527 22.4101 23.0527 21.8578C23.0527 21.3055 23.5005 20.8578 24.0527 20.8578C24.605 20.8578 25.0527 21.3055 25.0527 21.8578ZM28.0527 22.8578C28.605 22.8578 29.0527 22.4101 29.0527 21.8578C29.0527 21.3055 28.605 20.8578 28.0527 20.8578C27.5005 20.8578 27.0527 21.3055 27.0527 21.8578C27.0527 22.4101 27.5005 22.8578 28.0527 22.8578Z" fill="#F5FEF9"/>
<path d="M82.001 29H80.1992V19.666H80.1377L76.3145 28.9033H74.8555L71.0234 19.666H70.9619V29H69.1689V16.3174H71.4453L75.5498 26.3281H75.6201L79.7158 16.3174H82.001V29ZM88.6975 21.1162C87.3704 21.1162 86.4388 22.127 86.3421 23.5244H90.9651C90.9212 22.1094 90.0247 21.1162 88.6975 21.1162ZM90.9563 26.2842H92.7581C92.4944 27.9717 90.8948 29.1758 88.7766 29.1758C86.0608 29.1758 84.4173 27.3389 84.4173 24.4209C84.4173 21.5205 86.0872 19.5869 88.6975 19.5869C91.2639 19.5869 92.8636 21.3975 92.8636 24.2012V24.8516H86.3333V24.9658C86.3333 26.5742 87.3001 27.6377 88.8206 27.6377C89.9016 27.6377 90.7014 27.0928 90.9563 26.2842ZM94.8931 22.373C94.8931 20.7207 96.3521 19.5869 98.5142 19.5869C100.571 19.5869 102.012 20.7383 102.074 22.3818H100.29C100.202 21.5469 99.525 21.0283 98.4615 21.0283C97.4332 21.0283 96.7476 21.5293 96.7476 22.2588C96.7476 22.8301 97.2046 23.2168 98.1627 23.4541L99.7183 23.8145C101.582 24.2627 102.285 24.9658 102.285 26.3281C102.285 28.0156 100.711 29.1758 98.4439 29.1758C96.2554 29.1758 94.8052 28.042 94.6558 26.3457H96.5367C96.6861 27.2334 97.3716 27.7256 98.5318 27.7256C99.6744 27.7256 100.378 27.251 100.378 26.5039C100.378 25.915 100.026 25.5898 99.0591 25.3438L97.4068 24.9395C95.7369 24.5352 94.8931 23.665 94.8931 22.373ZM104.314 22.373C104.314 20.7207 105.773 19.5869 107.935 19.5869C109.992 19.5869 111.433 20.7383 111.495 22.3818H109.711C109.623 21.5469 108.946 21.0283 107.883 21.0283C106.854 21.0283 106.169 21.5293 106.169 22.2588C106.169 22.8301 106.626 23.2168 107.584 23.4541L109.139 23.8145C111.003 24.2627 111.706 24.9658 111.706 26.3281C111.706 28.0156 110.133 29.1758 107.865 29.1758C105.677 29.1758 104.226 28.042 104.077 26.3457H105.958C106.107 27.2334 106.793 27.7256 107.953 27.7256C109.096 27.7256 109.799 27.251 109.799 26.5039C109.799 25.915 109.447 25.5898 108.48 25.3438L106.828 24.9395C105.158 24.5352 104.314 23.665 104.314 22.373ZM117.137 27.6553C118.464 27.6553 119.501 26.7412 119.501 25.5371V24.8076L117.225 24.9482C116.091 25.0273 115.449 25.5283 115.449 26.3193C115.449 27.1279 116.117 27.6553 117.137 27.6553ZM116.609 29.1582C114.799 29.1582 113.533 28.0332 113.533 26.3721C113.533 24.7549 114.773 23.7617 116.97 23.6387L119.501 23.4893V22.7773C119.501 21.749 118.807 21.1338 117.647 21.1338C116.548 21.1338 115.862 21.6611 115.695 22.4873H113.902C114.008 20.8174 115.432 19.5869 117.717 19.5869C119.958 19.5869 121.391 20.7734 121.391 22.6279V29H119.571V27.4795H119.527C118.991 28.5078 117.822 29.1582 116.609 29.1582ZM127.894 27.4619C129.379 27.4619 130.355 26.2578 130.355 24.3506C130.355 22.4521 129.379 21.2041 127.894 21.2041C126.435 21.2041 125.486 22.4258 125.486 24.3506C125.486 26.2842 126.435 27.4619 127.894 27.4619ZM127.912 32.4805C125.732 32.4805 124.115 31.3203 123.877 29.7207H125.785C126.057 30.4941 126.901 31.0039 127.982 31.0039C129.467 31.0039 130.346 30.1602 130.346 28.8945V27.374H130.311C129.792 28.376 128.703 29.0352 127.384 29.0352C125.064 29.0352 123.543 27.2246 123.543 24.3418C123.543 21.4326 125.055 19.6045 127.428 19.6045C128.738 19.6045 129.81 20.2637 130.372 21.3359H130.408V19.7539H132.253V28.833C132.253 31.0391 130.548 32.4805 127.912 32.4805ZM138.721 21.1162C137.394 21.1162 136.463 22.127 136.366 23.5244H140.989C140.945 22.1094 140.049 21.1162 138.721 21.1162ZM140.98 26.2842H142.782C142.518 27.9717 140.919 29.1758 138.8 29.1758C136.085 29.1758 134.441 27.3389 134.441 24.4209C134.441 21.5205 136.111 19.5869 138.721 19.5869C141.288 19.5869 142.887 21.3975 142.887 24.2012V24.8516H136.357V24.9658C136.357 26.5742 137.324 27.6377 138.844 27.6377C139.925 27.6377 140.725 27.0928 140.98 26.2842ZM144.917 22.373C144.917 20.7207 146.376 19.5869 148.538 19.5869C150.595 19.5869 152.036 20.7383 152.098 22.3818H150.313C150.226 21.5469 149.549 21.0283 148.485 21.0283C147.457 21.0283 146.771 21.5293 146.771 22.2588C146.771 22.8301 147.228 23.2168 148.186 23.4541L149.742 23.8145C151.605 24.2627 152.309 24.9658 152.309 26.3281C152.309 28.0156 150.735 29.1758 148.468 29.1758C146.279 29.1758 144.829 28.042 144.68 26.3457H146.561C146.71 27.2334 147.395 27.7256 148.556 27.7256C149.698 27.7256 150.401 27.251 150.401 26.5039C150.401 25.915 150.05 25.5898 149.083 25.3438L147.431 24.9395C145.761 24.5352 144.917 23.665 144.917 22.373Z" fill="#F5FEF9"/>
</svg>
