<svg width="56" height="56" viewBox="0 0 56 56" fill="none" xmlns="http://www.w3.org/2000/svg">
<g id="side plus">
<circle id="Ellipse 23" cx="28" cy="28" r="28" fill="#1F2F3E"/>
<path id="Vector" d="M17.8184 26.9999C17.2661 26.9999 16.8184 27.4476 16.8184 27.9999C16.8184 28.5522 17.2661 28.9999 17.8184 28.9999V26.9999ZM38.182 28.9999C38.7343 28.9999 39.182 28.5522 39.182 27.9999C39.182 27.4476 38.7343 26.9999 38.182 26.9999V28.9999ZM27.0002 38.1818C27.0002 38.734 27.4479 39.1818 28.0002 39.1818C28.5525 39.1818 29.0002 38.734 29.0002 38.1818H27.0002ZM29.0002 17.8181C29.0002 17.2658 28.5525 16.8181 28.0002 16.8181C27.4479 16.8181 27.0002 17.2658 27.0002 17.8181H29.0002ZM29.0002 38.1818V27.9999H27.0002V38.1818H29.0002ZM29.0002 27.9999V17.8181H27.0002V27.9999H29.0002ZM17.8184 28.9999H28.0002V26.9999H17.8184V28.9999ZM28.0002 28.9999H38.182V26.9999H28.0002V28.9999Z" fill="#35CCCD"/>
</g>
</svg>
