<svg width="56" height="56" viewBox="0 0 56 56" fill="none" xmlns="http://www.w3.org/2000/svg">
<circle cx="28" cy="28" r="28" fill="#1F2F3E"/>
<path d="M35.5304 33.4698C35.2375 33.1769 34.7626 33.1769 34.4697 33.4698C34.1768 33.7626 34.1768 34.2375 34.4697 34.5304L35.5304 33.4698ZM38.4696 38.5304C38.7625 38.8233 39.2374 38.8233 39.5303 38.5304C39.8232 38.2375 39.8232 37.7626 39.5303 37.4697L38.4696 38.5304ZM25.3351 20.8023C25.7442 20.7375 26.0234 20.3533 25.9586 19.9442C25.8938 19.5351 25.5096 19.256 25.1005 19.3208L25.3351 20.8023ZM20.3208 24.1005C20.256 24.5096 20.5351 24.8938 20.9442 24.9586C21.3533 25.0234 21.7375 24.7443 21.8023 24.3351L20.3208 24.1005ZM34.4697 34.5304L38.4696 38.5304L39.5303 37.4697L35.5304 33.4698L34.4697 34.5304ZM27 34.25C22.4437 34.25 18.75 30.5563 18.75 26H17.25C17.25 31.3848 21.6152 35.75 27 35.75V34.25ZM35.25 26C35.25 30.5563 31.5563 34.25 27 34.25V35.75C32.3848 35.75 36.75 31.3848 36.75 26H35.25ZM27 17.75C31.5563 17.75 35.25 21.4437 35.25 26H36.75C36.75 20.6152 32.3848 16.25 27 16.25V17.75ZM27 16.25C21.6152 16.25 17.25 20.6152 17.25 26H18.75C18.75 21.4437 22.4437 17.75 27 17.75V16.25ZM25.1005 19.3208C22.6401 19.7105 20.7104 21.6401 20.3208 24.1005L21.8023 24.3351C22.0903 22.5166 23.5166 21.0903 25.3351 20.8023L25.1005 19.3208Z" fill="#35CCCD"/>
</svg>
