<svg width="584" height="645" viewBox="0 0 584 645" fill="none" xmlns="http://www.w3.org/2000/svg">
<g opacity="0.8">
<path fill-rule="evenodd" clip-rule="evenodd" d="M558.762 973.059C581.183 945.5 576.023 903.775 546.692 879.913L381.109 745.205L381.118 745.195C331.34 704.246 299.702 645.304 293.106 581.15C286.465 516.553 305.756 451.963 346.737 401.59L352.438 406.228C312.687 455.089 293.975 517.74 300.417 580.398C306.859 643.056 337.928 700.589 386.79 740.34L386.784 740.347L551.33 874.212C583.537 900.414 589.661 946.724 564.463 977.697C539.265 1008.67 492.677 1012.1 460.47 985.896L295.924 852.031L294.888 851.188L294.889 851.186C217.002 787.368 167.49 695.326 157.187 595.125C146.84 494.48 176.897 393.846 240.746 315.362L246.447 320C183.827 396.972 154.349 495.667 164.498 594.373C174.647 693.079 223.59 783.711 300.562 846.33L465.108 980.195C494.439 1004.06 536.341 1000.62 558.762 973.059Z" fill="#9A9DA1"/>
<g filter="url(#filter0_d_481_4845)">
<mask id="path-2-inside-1_481_4845" fill="white">
<path fill-rule="evenodd" clip-rule="evenodd" d="M873.092 502.521C903.861 527.553 949.096 522.902 974.128 492.133C999.16 461.364 994.509 416.128 963.74 391.097C932.971 366.065 887.735 370.716 862.704 401.485C837.672 432.254 842.323 477.489 873.092 502.521ZM713.76 363.421L708.049 358.68L707.761 359.035C654.973 318.503 588.591 299.622 522.202 306.448C454.3 313.429 391.878 346.739 348.284 399.169L346.699 400.883C323.794 425.651 285.261 428.66 258.723 407.07C232.185 385.48 227.289 347.141 246.879 319.676L248.015 318.083C248.175 317.889 248.335 317.695 248.496 317.501L248.559 317.424L248.62 317.346C248.876 317.02 249.135 316.695 249.398 316.372C250.057 315.561 250.732 314.771 251.422 314.001L251.488 313.927L251.553 313.851C316.573 237.167 408.8 188.484 509.014 178.18C609.869 167.81 710.712 197.145 790.211 259.812L790.439 259.992L790.68 260.153C792.372 261.282 794.026 262.502 795.639 263.813C823.259 286.284 827.434 326.891 804.964 354.511C782.493 382.132 741.887 386.307 714.266 363.836C714.214 363.794 714.162 363.751 714.11 363.709C714.061 363.669 714.013 363.629 713.964 363.59C713.896 363.534 713.828 363.477 713.76 363.421ZM352.094 405.872L352.209 405.965C394.645 353.804 456.063 320.636 522.954 313.758C589.844 306.881 656.726 326.857 708.887 369.291L708.889 369.293L709.066 369.076C709.253 369.23 709.44 369.384 709.628 369.537C709.742 369.63 709.856 369.722 709.971 369.814C710.045 369.874 710.12 369.934 710.194 369.993C740.95 394.511 785.786 389.73 810.665 359.149C835.697 328.38 831.046 283.144 800.277 258.112C798.485 256.655 796.644 255.298 794.761 254.041C713.763 190.192 611.018 160.304 508.263 170.869C406.159 181.367 312.193 230.968 245.947 309.098C245.784 309.28 245.622 309.463 245.46 309.647C244.862 310.329 244.274 311.025 243.697 311.734C243.405 312.093 243.117 312.454 242.833 312.817C242.146 313.647 241.463 314.48 240.783 315.316L240.896 315.408C219.069 346.01 224.519 388.718 254.085 412.771C283.651 436.823 326.574 433.47 352.094 405.872Z"/>
</mask>
<path d="M963.74 391.097L959.102 396.797L963.74 391.097ZM708.049 358.68L712.743 353.026L707.033 348.285L702.349 354.042L708.049 358.68ZM713.76 363.421L709.066 369.076L709.067 369.076L713.76 363.421ZM707.761 359.035L703.286 364.864L708.953 369.215L713.462 363.672L707.761 359.035ZM522.202 306.448L522.954 313.758L522.954 313.758L522.202 306.448ZM348.284 399.169L353.679 404.158L353.811 404.016L353.934 403.867L348.284 399.169ZM346.699 400.883L352.094 405.872L352.094 405.872L346.699 400.883ZM246.879 319.676L240.896 315.408L240.896 315.408L246.879 319.676ZM248.015 318.083L242.342 313.411L242.18 313.608L242.032 313.816L248.015 318.083ZM248.496 317.501L242.835 312.814L242.832 312.818L248.496 317.501ZM248.559 317.424L254.22 322.111L254.284 322.033L254.347 321.953L248.559 317.424ZM248.62 317.346L242.832 312.817L242.832 312.818L248.62 317.346ZM251.422 314.001L256.896 318.904L256.898 318.902L251.422 314.001ZM251.488 313.927L256.964 318.828L257.03 318.754L257.094 318.679L251.488 313.927ZM251.553 313.851L245.947 309.098L245.947 309.099L251.553 313.851ZM509.014 178.18L509.766 185.49L509.014 178.18ZM790.211 259.812L794.761 254.041L794.761 254.041L790.211 259.812ZM790.439 259.992L785.89 265.763L786.117 265.943L786.359 266.104L790.439 259.992ZM790.68 260.153L794.761 254.041L794.761 254.04L790.68 260.153ZM795.639 263.813L800.277 258.112L800.277 258.112L795.639 263.813ZM714.11 363.709L718.764 358.022L718.764 358.022L714.11 363.709ZM713.964 363.59L709.293 369.263L709.293 369.263L713.964 363.59ZM352.209 405.965L347.571 411.666L353.272 416.304L357.91 410.603L352.209 405.965ZM352.094 405.872L356.732 400.172L351.382 395.819L346.699 400.883L352.094 405.872ZM522.954 313.758L522.202 306.448L522.954 313.758ZM708.887 369.291L713.525 363.59L713.525 363.59L708.887 369.291ZM708.889 369.293L704.252 374.994L709.952 379.632L714.59 373.931L708.889 369.293ZM709.066 369.076L713.76 363.421L708.049 358.68L703.366 364.438L709.066 369.076ZM709.971 369.814L714.575 364.086L714.574 364.086L709.971 369.814ZM710.194 369.993L714.775 364.247L714.775 364.247L710.194 369.993ZM800.277 258.112L795.639 263.813L800.277 258.112ZM794.761 254.041L790.211 259.812L790.439 259.992L790.68 260.153L794.761 254.041ZM508.263 170.869L509.014 178.18L509.014 178.18L508.263 170.869ZM245.947 309.098L251.422 314.001L251.488 313.927L251.553 313.851L245.947 309.098ZM245.46 309.647L239.937 304.8L239.937 304.8L245.46 309.647ZM242.833 312.817L248.496 317.501L248.559 317.425L248.62 317.347L242.833 312.817ZM240.783 315.316L235.082 310.678L230.444 316.379L236.145 321.017L240.783 315.316ZM240.896 315.408L246.879 319.676L250.884 314.06L245.534 309.707L240.896 315.408ZM968.428 487.495C945.957 515.116 905.35 519.291 877.73 496.821L868.454 508.222C902.371 535.815 952.236 530.689 979.829 496.771L968.428 487.495ZM959.102 396.797C986.723 419.268 990.898 459.875 968.428 487.495L979.829 496.771C1007.42 462.853 1002.3 412.989 968.378 385.396L959.102 396.797ZM868.404 406.123C890.875 378.502 931.482 374.327 959.102 396.797L968.378 385.396C934.46 357.802 884.596 362.929 857.003 396.847L868.404 406.123ZM877.73 496.821C850.109 474.35 845.934 433.743 868.404 406.123L857.003 396.847C829.409 430.764 834.536 480.629 868.454 508.222L877.73 496.821ZM703.355 364.335L709.066 369.076L718.454 357.766L712.743 353.026L703.355 364.335ZM713.462 363.672L713.75 363.318L702.349 354.042L702.06 354.397L713.462 363.672ZM522.954 313.758C587.473 307.125 651.984 325.474 703.286 364.864L712.237 353.206C657.961 311.533 589.71 292.119 521.451 299.137L522.954 313.758ZM353.934 403.867C396.301 352.915 456.965 320.543 522.954 313.758L521.451 299.137C451.636 306.315 387.455 340.563 342.633 394.47L353.934 403.867ZM352.094 405.872L353.679 404.158L342.888 394.179L341.303 395.893L352.094 405.872ZM254.085 412.771C283.65 436.823 326.573 433.47 352.094 405.872L341.303 395.893C321.015 417.832 286.872 420.496 263.361 401.369L254.085 412.771ZM240.896 315.408C219.068 346.011 224.52 388.718 254.085 412.771L263.361 401.369C239.849 382.241 235.51 348.271 252.862 323.943L240.896 315.408ZM242.032 313.816L240.896 315.408L252.862 323.943L253.998 322.351L242.032 313.816ZM242.832 312.818C242.669 313.014 242.506 313.212 242.342 313.411L253.687 322.756C253.844 322.566 254.001 322.376 254.159 322.184L242.832 312.818ZM242.898 312.738L242.835 312.814L254.156 322.188L254.22 322.111L242.898 312.738ZM242.832 312.818L242.771 312.896L254.347 321.953L254.408 321.875L242.832 312.818ZM243.697 311.734C243.405 312.093 243.117 312.454 242.832 312.817L254.408 321.875C254.635 321.585 254.865 321.297 255.099 321.01L243.697 311.734ZM245.948 309.098C245.18 309.954 244.43 310.833 243.697 311.734L255.099 321.01C255.685 320.289 256.284 319.587 256.896 318.904L245.948 309.098ZM246.012 309.025L245.946 309.1L256.898 318.902L256.964 318.828L246.012 309.025ZM245.947 309.099L245.882 309.175L257.094 318.679L257.159 318.603L245.947 309.099ZM508.263 170.869C406.159 181.367 312.193 230.968 245.947 309.098L257.158 318.603C320.952 243.365 411.441 195.6 509.766 185.49L508.263 170.869ZM794.761 254.041C713.763 190.192 611.018 160.304 508.263 170.869L509.766 185.49C608.719 175.316 707.661 204.098 785.662 265.584L794.761 254.041ZM794.989 254.22L794.761 254.041L785.662 265.584L785.89 265.763L794.989 254.22ZM794.761 254.04L794.519 253.879L786.359 266.104L786.6 266.265L794.761 254.04ZM800.277 258.112C798.485 256.655 796.644 255.298 794.761 254.041L786.6 266.265C788.099 267.266 789.568 268.348 791.001 269.514L800.277 258.112ZM810.665 359.149C835.697 328.38 831.046 283.144 800.277 258.112L791.001 269.514C815.473 289.423 819.172 325.401 799.263 349.873L810.665 359.149ZM709.628 369.537C740.397 394.569 785.633 389.918 810.665 359.149L799.263 349.873C779.354 374.346 743.376 378.045 718.904 358.136L709.628 369.537ZM709.455 369.396C709.512 369.443 709.57 369.49 709.628 369.537L718.904 358.136C718.858 358.098 718.811 358.06 718.764 358.022L709.455 369.396ZM709.293 369.263C709.346 369.307 709.4 369.351 709.455 369.396L718.764 358.022C718.722 357.987 718.679 357.952 718.636 357.916L709.293 369.263ZM709.067 369.076C709.142 369.138 709.217 369.201 709.293 369.263L718.636 357.916C718.575 357.867 718.515 357.816 718.454 357.766L709.067 369.076ZM356.847 400.265L356.732 400.172L347.456 411.573L347.571 411.666L356.847 400.265ZM522.202 306.448C453.373 313.525 390.174 347.654 346.508 401.328L357.91 410.603C399.115 359.953 458.754 327.747 523.706 321.069L522.202 306.448ZM713.525 363.59C659.852 319.926 591.031 299.371 522.202 306.448L523.706 321.069C588.656 314.391 653.6 333.788 704.249 374.992L713.525 363.59ZM713.527 363.592L713.525 363.59L704.249 374.992L704.252 374.994L713.527 363.592ZM703.366 364.438L703.189 364.655L714.59 373.931L714.767 373.713L703.366 364.438ZM714.266 363.836C714.097 363.699 713.928 363.56 713.76 363.421L704.372 374.73C704.577 374.9 704.783 375.07 704.99 375.238L714.266 363.836ZM714.574 364.086C714.471 364.003 714.369 363.92 714.266 363.836L704.99 375.238C705.116 375.34 705.242 375.442 705.368 375.543L714.574 364.086ZM714.775 364.247C714.708 364.193 714.641 364.14 714.575 364.086L705.367 375.543C705.449 375.609 705.531 375.674 705.613 375.74L714.775 364.247ZM804.964 354.511C782.631 381.963 742.382 386.255 714.775 364.247L705.613 375.74C739.517 402.768 788.941 397.497 816.366 363.787L804.964 354.511ZM795.639 263.813C823.259 286.284 827.434 326.891 804.964 354.511L816.366 363.787C843.959 329.869 838.832 280.005 804.914 252.412L795.639 263.813ZM790.68 260.153C792.372 261.282 794.026 262.502 795.639 263.813L804.914 252.412C802.943 250.808 800.916 249.313 798.841 247.928L790.68 260.153ZM509.014 178.18C609.869 167.81 710.712 197.145 790.211 259.812L799.31 248.269C716.813 183.239 612.168 152.798 507.511 163.559L509.014 178.18ZM251.553 313.851C316.572 237.167 408.8 188.484 509.014 178.18L507.511 163.559C403.518 174.251 307.814 224.77 240.342 304.345L251.553 313.851ZM250.984 314.495C251.129 314.329 251.275 314.165 251.422 314.001L240.473 304.195C240.293 304.396 240.114 304.597 239.937 304.8L250.984 314.495ZM249.398 316.372C249.917 315.733 250.446 315.108 250.984 314.495L239.937 304.8C239.278 305.55 238.631 306.316 237.996 307.096L249.398 316.372ZM248.62 317.347C248.876 317.02 249.135 316.695 249.398 316.372L237.996 307.096C237.675 307.491 237.358 307.888 237.046 308.287L248.62 317.347ZM246.484 319.954C247.151 319.133 247.822 318.316 248.496 317.501L237.17 308.133C236.471 308.978 235.775 309.827 235.082 310.678L246.484 319.954ZM245.534 309.707L245.421 309.615L236.145 321.017L236.258 321.109L245.534 309.707ZM258.723 407.07C232.185 385.48 227.289 347.141 246.879 319.676L234.913 311.141C210.848 344.88 216.854 391.955 249.447 418.471L258.723 407.07ZM346.699 400.883C323.794 425.651 285.261 428.66 258.723 407.07L249.447 418.471C282.041 444.987 329.353 441.288 357.49 410.862L346.699 400.883Z" fill="#9A9DA1" mask="url(#path-2-inside-1_481_4845)"/>
</g>
</g>
<circle opacity="0.8" cx="202.037" cy="101.037" r="68.1458" transform="rotate(39.1297 202.037 101.037)" stroke="#9A9DA1" stroke-width="7.34906"/>
<defs>
<filter id="filter0_d_481_4845" x="191.476" y="145.369" width="834.873" height="422.067" filterUnits="userSpaceOnUse" color-interpolation-filters="sRGB">
<feFlood flood-opacity="0" result="BackgroundImageFix"/>
<feColorMatrix in="SourceAlpha" type="matrix" values="0 0 0 0 0 0 0 0 0 0 0 0 0 0 0 0 0 0 127 0" result="hardAlpha"/>
<feOffset dy="12.6938"/>
<feGaussianBlur stdDeviation="18.0553"/>
<feComposite in2="hardAlpha" operator="out"/>
<feColorMatrix type="matrix" values="0 0 0 0 0 0 0 0 0 0 0 0 0 0 0 0 0 0 0.25 0"/>
<feBlend mode="normal" in2="BackgroundImageFix" result="effect1_dropShadow_481_4845"/>
<feBlend mode="normal" in="SourceGraphic" in2="effect1_dropShadow_481_4845" result="shape"/>
</filter>
</defs>
</svg>
