<svg width="237" height="196" viewBox="0 0 237 196" fill="none" xmlns="http://www.w3.org/2000/svg">
<path fill-rule="evenodd" clip-rule="evenodd" d="M112.285 55.2146C114.353 57.2826 117.146 58.4597 120.066 58.499V58.5H120.217H126.094C126.094 58.5 126.094 58.5 126.094 58.5C127.215 58.5 128.123 57.5919 128.123 56.4717C128.123 55.3515 127.215 54.4434 126.094 54.4434C126.094 54.4434 126.094 54.4434 126.094 54.4434H120.217V54.4434C118.318 54.4434 116.497 53.689 115.154 52.3461C113.811 51.0033 113.057 49.1821 113.057 47.283L109 47.283C109 50.2579 110.182 53.111 112.285 55.2146Z" fill="url(#paint0_linear_154_395)"/>
<circle cx="132.038" cy="56.4717" r="2.0283" fill="#EA63B9"/>
<g filter="url(#filter0_d_154_395)">
<path fill-rule="evenodd" clip-rule="evenodd" d="M126.189 40.5566C127.309 40.5566 128.217 39.6485 128.217 38.5283C128.217 37.4081 127.309 36.5 126.189 36.5C125.069 36.5 124.16 37.4081 124.16 38.5283C124.16 39.6485 125.069 40.5566 126.189 40.5566ZM120.238 40.5566C121.358 40.5566 122.266 39.6485 122.266 38.5283C122.266 37.4081 121.358 36.5 120.238 36.5C120.172 36.5 120.108 36.5031 120.044 36.5091C117.132 36.554 114.348 37.7304 112.285 39.7932C110.236 41.8426 109.062 44.6034 109.002 47.4952C109.001 47.528 109 47.5611 109 47.5943C109 47.6023 109 47.6103 109 47.6182C109 47.6237 109 47.6292 109 47.6348C109 47.6647 109 47.6947 109 47.7248L109.004 47.7248C109.071 48.7842 109.952 49.6226 111.028 49.6226C112.105 49.6226 112.985 48.7842 113.053 47.7248L113.057 47.7248C113.057 45.8257 113.811 44.0045 115.154 42.6616C116.497 41.3188 118.318 40.5644 120.217 40.5644L120.217 40.5565L120.238 40.5566Z" fill="url(#paint1_linear_154_395)"/>
</g>
<defs>
<filter id="filter0_d_154_395" x="0.900063" y="-33.6" width="235.417" height="229.323" filterUnits="userSpaceOnUse" color-interpolation-filters="sRGB">
<feFlood flood-opacity="0" result="BackgroundImageFix"/>
<feColorMatrix in="SourceAlpha" type="matrix" values="0 0 0 0 0 0 0 0 0 0 0 0 0 0 0 0 0 0 127 0" result="hardAlpha"/>
<feOffset dy="38"/>
<feGaussianBlur stdDeviation="54.05"/>
<feComposite in2="hardAlpha" operator="out"/>
<feColorMatrix type="matrix" values="0 0 0 0 0 0 0 0 0 0 0 0 0 0 0 0 0 0 0.25 0"/>
<feBlend mode="normal" in2="BackgroundImageFix" result="effect1_dropShadow_154_395"/>
<feBlend mode="normal" in="SourceGraphic" in2="effect1_dropShadow_154_395" result="shape"/>
</filter>
<linearGradient id="paint0_linear_154_395" x1="110.792" y1="48.1557" x2="127.675" y2="58.1698" gradientUnits="userSpaceOnUse">
<stop stop-color="#35CCCD"/>
<stop offset="1" stop-color="#EA63B9"/>
</linearGradient>
<linearGradient id="paint1_linear_154_395" x1="120.698" y1="36.5" x2="109.543" y2="47.4481" gradientUnits="userSpaceOnUse">
<stop offset="0.00449121" stop-color="#F0584F"/>
<stop offset="1" stop-color="#35CCCD"/>
</linearGradient>
</defs>
</svg>
