<svg xmlns="http://www.w3.org/2000/svg" width="237" height="211" viewBox="0 0 237 211" fill="none">
  <path fill-rule="evenodd" clip-rule="evenodd" d="M112.285 70.2146C114.353 72.2826 117.146 73.4597 120.066 73.4989V73.4999H120.217H126.094C126.094 73.4999 126.094 73.4999 126.094 73.4999C127.215 73.4999 128.123 72.5918 128.123 71.4716C128.123 70.3515 127.215 69.4434 126.094 69.4433C126.094 69.4433 126.094 69.4433 126.094 69.4433H120.217V69.4433C118.318 69.4433 116.497 68.6889 115.154 67.3461C113.811 66.0033 113.057 64.182 113.057 62.283L109 62.283C109 65.2579 110.182 68.111 112.285 70.2146Z" fill="url(#paint0_linear_494_551)"/>
  <circle cx="132.038" cy="71.4717" r="2.0283" fill="#EA63B9"/>
  <g filter="url(#filter0_d_494_551)">
    <path fill-rule="evenodd" clip-rule="evenodd" d="M126.189 55.5566C127.309 55.5566 128.217 54.6485 128.217 53.5283C128.217 52.4081 127.309 51.5 126.189 51.5C125.069 51.5 124.16 52.4081 124.16 53.5283C124.16 54.6485 125.069 55.5566 126.189 55.5566ZM120.238 55.5566C121.358 55.5566 122.266 54.6485 122.266 53.5283C122.266 52.4081 121.358 51.5 120.238 51.5C120.172 51.5 120.108 51.5031 120.044 51.5091C117.132 51.554 114.348 52.7304 112.285 54.7932C110.236 56.8426 109.062 59.6034 109.002 62.4952C109.001 62.528 109 62.5611 109 62.5943C109 62.6023 109 62.6103 109 62.6182C109 62.6237 109 62.6292 109 62.6348C109 62.6647 109 62.6947 109 62.7248L109.004 62.7248C109.071 63.7842 109.952 64.6226 111.028 64.6226C112.105 64.6226 112.985 63.7842 113.053 62.7248L113.057 62.7248C113.057 60.8257 113.811 59.0045 115.154 57.6616C116.497 56.3188 118.318 55.5644 120.217 55.5644L120.217 55.5565L120.238 55.5566Z" fill="url(#paint1_linear_494_551)"/>
  </g>
  <defs>
    <filter id="filter0_d_494_551" x="0.900002" y="-18.6" width="235.417" height="229.323" filterUnits="userSpaceOnUse" color-interpolation-filters="sRGB">
      <feFlood flood-opacity="0" result="BackgroundImageFix"/>
      <feColorMatrix in="SourceAlpha" type="matrix" values="0 0 0 0 0 0 0 0 0 0 0 0 0 0 0 0 0 0 127 0" result="hardAlpha"/>
      <feOffset dy="38"/>
      <feGaussianBlur stdDeviation="54.05"/>
      <feComposite in2="hardAlpha" operator="out"/>
      <feColorMatrix type="matrix" values="0 0 0 0 0 0 0 0 0 0 0 0 0 0 0 0 0 0 0.25 0"/>
      <feBlend mode="normal" in2="BackgroundImageFix" result="effect1_dropShadow_494_551"/>
      <feBlend mode="normal" in="SourceGraphic" in2="effect1_dropShadow_494_551" result="shape"/>
    </filter>
    <linearGradient id="paint0_linear_494_551" x1="110.792" y1="63.1556" x2="127.675" y2="73.1698" gradientUnits="userSpaceOnUse">
      <stop stop-color="#35CCCD"/>
      <stop offset="1" stop-color="#EA63B9"/>
    </linearGradient>
    <linearGradient id="paint1_linear_494_551" x1="120.698" y1="51.5" x2="109.543" y2="62.4481" gradientUnits="userSpaceOnUse">
      <stop offset="0.00449121" stop-color="#F0584F"/>
      <stop offset="1" stop-color="#35CCCD"/>
    </linearGradient>
  </defs>
</svg>