<svg width="265" height="211" viewBox="0 0 265 211" fill="none" xmlns="http://www.w3.org/2000/svg">
<path fill-rule="evenodd" clip-rule="evenodd" d="M112.285 70.2147C114.353 72.2827 117.146 73.4598 120.066 73.4991V73.5001H120.217H126.094C126.094 73.5001 126.094 73.5001 126.094 73.5001C127.215 73.5 128.123 72.5919 128.123 71.4718C128.123 70.3516 127.215 69.4435 126.094 69.4435C126.094 69.4435 126.094 69.4435 126.094 69.4435H120.217V69.4434C118.318 69.4434 116.497 68.689 115.154 67.3462C113.811 66.0034 113.057 64.1821 113.057 62.2831L109 62.2831C109 65.258 110.182 68.1111 112.285 70.2147Z" fill="url(#paint0_linear_481_4902)"/>
<circle cx="132.038" cy="71.4717" r="2.0283" fill="#EA63B9"/>
<g filter="url(#filter0_d_481_4902)">
<path fill-rule="evenodd" clip-rule="evenodd" d="M126.189 55.5566C127.309 55.5566 128.217 54.6485 128.217 53.5283C128.217 52.4081 127.309 51.5 126.189 51.5C125.069 51.5 124.16 52.4081 124.16 53.5283C124.16 54.6485 125.069 55.5566 126.189 55.5566ZM120.238 55.5566C121.358 55.5566 122.266 54.6485 122.266 53.5283C122.266 52.4081 121.358 51.5 120.238 51.5C120.172 51.5 120.108 51.5031 120.044 51.5091C117.132 51.554 114.348 52.7304 112.285 54.7932C110.236 56.8426 109.062 59.6034 109.002 62.4952C109.001 62.528 109 62.5611 109 62.5943C109 62.6023 109 62.6103 109 62.6182C109 62.6237 109 62.6292 109 62.6348C109 62.6647 109 62.6947 109 62.7248L109.004 62.7248C109.071 63.7842 109.952 64.6226 111.028 64.6226C112.105 64.6226 112.985 63.7842 113.053 62.7248L113.057 62.7248C113.057 60.8257 113.811 59.0045 115.154 57.6616C116.497 56.3188 118.318 55.5644 120.217 55.5644L120.217 55.5565L120.238 55.5566Z" fill="url(#paint1_linear_481_4902)"/>
</g>
<path d="M150.843 71.2812C146.015 71.2812 142.98 67.9648 142.98 62.5391C142.98 57.1484 146.039 53.8086 150.843 53.8086C154.769 53.8086 157.757 56.2578 158.132 59.8906H155.156C154.757 57.7695 153.035 56.375 150.843 56.375C147.937 56.375 146.074 58.7656 146.074 62.5391C146.074 66.3359 147.925 68.7148 150.855 68.7148C153.093 68.7148 154.699 67.5078 155.168 65.4688H158.132C157.605 69.0898 154.839 71.2812 150.843 71.2812ZM165.632 71.2461C161.988 71.2461 159.621 68.8203 159.621 64.7891C159.621 60.7812 162.011 58.3203 165.632 58.3203C169.254 58.3203 171.644 60.7695 171.644 64.7891C171.644 68.8203 169.277 71.2461 165.632 71.2461ZM165.632 68.9375C167.484 68.9375 168.679 67.4375 168.679 64.7891C168.679 62.1523 167.484 60.6406 165.632 60.6406C163.793 60.6406 162.586 62.1523 162.586 64.7891C162.586 67.4375 163.781 68.9375 165.632 68.9375ZM173.519 71V58.5781H176.32V60.7109H176.379C177.047 59.2344 178.371 58.3438 180.281 58.3438C183.023 58.3438 184.582 60.1016 184.582 62.9727V71H181.664V63.5586C181.664 61.8008 180.843 60.8164 179.179 60.8164C177.504 60.8164 176.437 62.0234 176.437 63.8047V71H173.519ZM186.925 71V58.5781H189.726V60.7109H189.785C190.453 59.2344 191.777 58.3438 193.687 58.3438C196.429 58.3438 197.988 60.1016 197.988 62.9727V71H195.07V63.5586C195.07 61.8008 194.25 60.8164 192.586 60.8164C190.91 60.8164 189.843 62.0234 189.843 63.8047V71H186.925ZM205.687 60.582C204.047 60.582 202.863 61.8359 202.746 63.5703H208.547C208.488 61.8125 207.363 60.582 205.687 60.582ZM208.558 67.2852H211.289C210.914 69.6289 208.734 71.2461 205.793 71.2461C202.066 71.2461 199.816 68.7969 199.816 64.8359C199.816 60.9102 202.089 58.3203 205.675 58.3203C209.203 58.3203 211.406 60.7695 211.406 64.543V65.4922H202.722V65.668C202.722 67.6602 203.941 68.9961 205.851 68.9961C207.211 68.9961 208.242 68.3164 208.558 67.2852ZM224.238 63.0078H221.484C221.25 61.6836 220.324 60.6875 218.765 60.6875C216.925 60.6875 215.742 62.2344 215.742 64.7891C215.742 67.3906 216.937 68.8906 218.789 68.8906C220.265 68.8906 221.226 68.0469 221.496 66.6406H224.25C224.015 69.418 221.871 71.2461 218.754 71.2461C215.121 71.2461 212.777 68.8203 212.777 64.7891C212.777 60.8164 215.121 58.3203 218.73 58.3203C222.011 58.3203 224.039 60.3945 224.238 63.0078ZM226.804 55.6719H229.722V58.5781H232.066V60.8281H229.722V67.2852C229.722 68.3047 230.191 68.7734 231.222 68.7734C231.492 68.7734 231.867 68.75 232.054 68.7148V70.9414C231.738 71.0117 231.164 71.0586 230.543 71.0586C227.859 71.0586 226.804 70.1094 226.804 67.6953V60.8281H225.023V58.5781H226.804V55.6719ZM234.129 71V58.5781H237.047V71H234.129ZM235.582 56.9492C234.679 56.9492 233.964 56.2461 233.964 55.3672C233.964 54.4766 234.679 53.7734 235.582 53.7734C236.496 53.7734 237.211 54.4766 237.211 55.3672C237.211 56.2461 236.496 56.9492 235.582 56.9492ZM240.304 71V60.8281H238.605V58.6133H240.304V57.5117C240.304 55.0977 241.453 53.9609 244.148 53.9609C244.722 53.9609 245.355 54.0195 245.718 54.0898V56.1289C245.472 56.0938 245.132 56.0586 244.793 56.0586C243.679 56.0586 243.175 56.5859 243.175 57.5938V58.6133H245.66V60.8281H243.222V71H240.304ZM248.964 75.6172C248.8 75.6172 247.968 75.6055 247.816 75.5703V73.2617C247.968 73.2969 248.484 73.3086 248.66 73.3086C249.867 73.3086 250.488 72.8516 250.816 71.7031C250.816 71.668 250.992 71.0469 250.98 71.0117L246.562 58.5781H249.75L252.679 68.5156H252.726L255.656 58.5781H258.726L254.238 71.4922C253.172 74.5742 251.8 75.6172 248.964 75.6172Z" fill="#F5FEF9"/>
<path d="M260.519 71.1289C259.57 71.1289 258.832 70.3906 258.832 69.4414C258.832 68.5039 259.57 67.7539 260.519 67.7539C261.457 67.7539 262.195 68.5039 262.195 69.4414C262.195 70.3906 261.457 71.1289 260.519 71.1289Z" fill="#35CCCD"/>
<path d="M182.343 85.4492H183.05C183.117 86.0586 183.695 86.4609 184.5 86.4609C185.261 86.4609 185.816 86.0586 185.816 85.5039C185.816 85.0273 185.484 84.7344 184.726 84.5391L184.004 84.3516C182.964 84.0859 182.504 83.6289 182.504 82.8633C182.504 81.9258 183.324 81.2695 184.496 81.2695C185.617 81.2695 186.429 81.9336 186.461 82.8789H185.757C185.695 82.2734 185.207 81.9023 184.472 81.9023C183.742 81.9023 183.234 82.2812 183.234 82.832C183.234 83.2578 183.547 83.5117 184.312 83.7109L184.902 83.8672C186.07 84.1602 186.543 84.6094 186.543 85.418C186.543 86.4492 185.73 87.0938 184.433 87.0938C183.238 87.0938 182.41 86.4453 182.343 85.4492ZM187.293 87V82.9375H187.972V87H187.293ZM187.632 82.2539C187.402 82.2539 187.211 82.0625 187.211 81.832C187.211 81.5977 187.402 81.4102 187.632 81.4102C187.867 81.4102 188.058 81.5977 188.058 81.832C188.058 82.0625 187.867 82.2539 187.632 82.2539ZM188.89 87V82.9375H189.531V83.5859H189.547C189.738 83.1562 190.152 82.8672 190.699 82.8672C191.254 82.8672 191.664 83.1484 191.839 83.6406H191.855C192.082 83.1562 192.558 82.8672 193.129 82.8672C193.933 82.8672 194.453 83.3906 194.453 84.1953V87H193.773V84.3516C193.773 83.7969 193.464 83.4688 192.929 83.4688C192.39 83.4688 192.011 83.8672 192.011 84.418V87H191.332V84.2773C191.332 83.7891 191.004 83.4688 190.5 83.4688C189.961 83.4688 189.57 83.8906 189.57 84.4531V87H188.89ZM197.293 82.8672C198.328 82.8672 199.031 83.6953 199.031 84.9688C199.031 86.2422 198.332 87.0703 197.308 87.0703C196.726 87.0703 196.257 86.7852 196.015 86.3398H196V88.3555H195.32V82.9375H195.964V83.625H195.98C196.23 83.168 196.703 82.8672 197.293 82.8672ZM197.16 86.4727C197.882 86.4727 198.336 85.8906 198.336 84.9688C198.336 84.0508 197.882 83.4648 197.16 83.4648C196.464 83.4648 195.996 84.0664 195.996 84.9688C195.996 85.875 196.464 86.4727 197.16 86.4727ZM199.754 87V81.3633H200.433V87H199.754ZM201.386 87V82.9375H202.066V87H201.386ZM201.726 82.2539C201.496 82.2539 201.304 82.0625 201.304 81.832C201.304 81.5977 201.496 81.4102 201.726 81.4102C201.961 81.4102 202.152 81.5977 202.152 81.832C202.152 82.0625 201.961 82.2539 201.726 82.2539ZM203.203 87V83.4961H202.636V82.9375H203.203V82.4844C203.203 81.7031 203.566 81.332 204.316 81.332C204.468 81.332 204.632 81.3477 204.73 81.3633V81.9141C204.648 81.9023 204.535 81.8906 204.422 81.8906C204.054 81.8906 203.879 82.0859 203.879 82.4883V82.9375H204.711V83.4961H203.882V87H203.203ZM205.75 88.5195C205.668 88.5195 205.531 88.5117 205.457 88.4961V87.9258C205.531 87.9414 205.636 87.9453 205.722 87.9453C206.101 87.9453 206.312 87.7617 206.468 87.2891L206.562 87.0039L205.062 82.9375H205.789L206.914 86.3203H206.925L208.05 82.9375H208.765L207.168 87.2852C206.82 88.2344 206.484 88.5195 205.75 88.5195ZM211.164 81.957H211.843V82.9375H212.632V83.4961H211.843V85.9102C211.843 86.2812 212 86.4492 212.347 86.4492C212.425 86.4492 212.582 86.4375 212.629 86.4297V87C212.547 87.0195 212.359 87.0312 212.199 87.0312C211.453 87.0312 211.164 86.7266 211.164 85.9453V83.4961H210.558V82.9375H211.164V81.957ZM213.394 87V81.3633H214.074V83.5859H214.089C214.316 83.1328 214.761 82.8672 215.379 82.8672C216.269 82.8672 216.808 83.4688 216.808 84.375V87H216.129V84.5C216.129 83.8555 215.804 83.4688 215.168 83.4688C214.492 83.4688 214.074 83.9297 214.074 84.6328V87H213.394ZM219.3 83.457C218.664 83.457 218.218 83.9453 218.175 84.6211H220.382C220.367 83.9414 219.941 83.457 219.3 83.457ZM220.367 85.8359H221.035C220.918 86.5469 220.23 87.0703 219.343 87.0703C218.179 87.0703 217.472 86.2617 217.472 84.9844C217.472 83.7227 218.191 82.8672 219.312 82.8672C220.41 82.8672 221.086 83.6641 221.086 84.8945V85.1523H218.172V85.1914C218.172 85.9688 218.629 86.4805 219.359 86.4805C219.875 86.4805 220.254 86.2188 220.367 85.8359ZM226.789 84.2695H226.125C226.027 83.8281 225.683 83.4648 225.086 83.4648C224.382 83.4648 223.906 84.0469 223.906 84.9688C223.906 85.9141 224.39 86.4727 225.093 86.4727C225.648 86.4727 226.011 86.1797 226.129 85.6914H226.797C226.691 86.5 226.011 87.0703 225.089 87.0703C223.964 87.0703 223.214 86.2773 223.214 84.9688C223.214 83.6875 223.961 82.8672 225.082 82.8672C226.097 82.8672 226.703 83.5391 226.789 84.2695ZM229.105 87.0703C227.98 87.0703 227.222 86.2617 227.222 84.9688C227.222 83.6719 227.98 82.8672 229.105 82.8672C230.226 82.8672 230.984 83.6719 230.984 84.9688C230.984 86.2617 230.226 87.0703 229.105 87.0703ZM229.105 86.4727C229.824 86.4727 230.293 85.9258 230.293 84.9688C230.293 84.0117 229.824 83.4648 229.105 83.4648C228.386 83.4648 227.914 84.0117 227.914 84.9688C227.914 85.9258 228.386 86.4727 229.105 86.4727ZM231.672 87V82.9375H232.312V83.5859H232.328C232.554 83.1484 232.988 82.8672 233.617 82.8672C234.507 82.8672 235.023 83.4414 235.023 84.3633V87H234.343V84.4844C234.343 83.8281 234.035 83.4688 233.41 83.4688C232.769 83.4688 232.351 83.9219 232.351 84.6094V87H231.672ZM235.89 87V82.9375H236.531V83.5859H236.547C236.773 83.1484 237.207 82.8672 237.836 82.8672C238.726 82.8672 239.242 83.4414 239.242 84.3633V87H238.562V84.4844C238.562 83.8281 238.254 83.4688 237.629 83.4688C236.988 83.4688 236.57 83.9219 236.57 84.6094V87H235.89ZM241.738 83.457C241.101 83.457 240.656 83.9453 240.613 84.6211H242.82C242.804 83.9414 242.379 83.457 241.738 83.457ZM242.804 85.8359H243.472C243.355 86.5469 242.668 87.0703 241.781 87.0703C240.617 87.0703 239.91 86.2617 239.91 84.9844C239.91 83.7227 240.629 82.8672 241.75 82.8672C242.847 82.8672 243.523 83.6641 243.523 84.8945V85.1523H240.609V85.1914C240.609 85.9688 241.066 86.4805 241.797 86.4805C242.312 86.4805 242.691 86.2188 242.804 85.8359ZM247.586 84.2695H246.922C246.824 83.8281 246.48 83.4648 245.882 83.4648C245.179 83.4648 244.703 84.0469 244.703 84.9688C244.703 85.9141 245.187 86.4727 245.89 86.4727C246.445 86.4727 246.808 86.1797 246.925 85.6914H247.593C247.488 86.5 246.808 87.0703 245.886 87.0703C244.761 87.0703 244.011 86.2773 244.011 84.9688C244.011 83.6875 244.757 82.8672 245.879 82.8672C246.894 82.8672 247.5 83.5391 247.586 84.2695ZM248.437 81.957H249.117V82.9375H249.906V83.4961H249.117V85.9102C249.117 86.2812 249.273 86.4492 249.621 86.4492C249.699 86.4492 249.855 86.4375 249.902 86.4297V87C249.82 87.0195 249.632 87.0312 249.472 87.0312C248.726 87.0312 248.437 86.7266 248.437 85.9453V83.4961H247.832V82.9375H248.437V81.957ZM250.668 87V82.9375H251.347V87H250.668ZM251.007 82.2539C250.777 82.2539 250.586 82.0625 250.586 81.832C250.586 81.5977 250.777 81.4102 251.007 81.4102C251.242 81.4102 251.433 81.5977 251.433 81.832C251.433 82.0625 251.242 82.2539 251.007 82.2539ZM253.949 87.0703C252.824 87.0703 252.066 86.2617 252.066 84.9688C252.066 83.6719 252.824 82.8672 253.949 82.8672C255.07 82.8672 255.828 83.6719 255.828 84.9688C255.828 86.2617 255.07 87.0703 253.949 87.0703ZM253.949 86.4727C254.668 86.4727 255.136 85.9258 255.136 84.9688C255.136 84.0117 254.668 83.4648 253.949 83.4648C253.23 83.4648 252.757 84.0117 252.757 84.9688C252.757 85.9258 253.23 86.4727 253.949 86.4727ZM256.515 87V82.9375H257.156V83.5859H257.172C257.398 83.1484 257.832 82.8672 258.461 82.8672C259.351 82.8672 259.867 83.4414 259.867 84.3633V87H259.187V84.4844C259.187 83.8281 258.879 83.4688 258.254 83.4688C257.613 83.4688 257.195 83.9219 257.195 84.6094V87H256.515ZM260.664 84.0586C260.664 83.3633 261.285 82.8672 262.179 82.8672C263.019 82.8672 263.636 83.3672 263.668 84.0547H263.019C262.972 83.6641 262.656 83.4219 262.156 83.4219C261.66 83.4219 261.332 83.668 261.332 84.0234C261.332 84.3047 261.547 84.4922 262.007 84.6094L262.636 84.7617C263.457 84.9688 263.754 85.2656 263.754 85.8633C263.754 86.5703 263.086 87.0703 262.136 87.0703C261.246 87.0703 260.625 86.5859 260.554 85.8672H261.234C261.308 86.2891 261.629 86.5156 262.179 86.5156C262.73 86.5156 263.07 86.2812 263.07 85.9141C263.07 85.625 262.902 85.4688 262.445 85.3477L261.73 85.1641C261.015 84.9805 260.664 84.6133 260.664 84.0586Z" fill="#F5FEF9"/>
<defs>
<filter id="filter0_d_481_4902" x="0.900002" y="-18.6" width="235.417" height="229.323" filterUnits="userSpaceOnUse" color-interpolation-filters="sRGB">
<feFlood flood-opacity="0" result="BackgroundImageFix"/>
<feColorMatrix in="SourceAlpha" type="matrix" values="0 0 0 0 0 0 0 0 0 0 0 0 0 0 0 0 0 0 127 0" result="hardAlpha"/>
<feOffset dy="38"/>
<feGaussianBlur stdDeviation="54.05"/>
<feComposite in2="hardAlpha" operator="out"/>
<feColorMatrix type="matrix" values="0 0 0 0 0 0 0 0 0 0 0 0 0 0 0 0 0 0 0.25 0"/>
<feBlend mode="normal" in2="BackgroundImageFix" result="effect1_dropShadow_481_4902"/>
<feBlend mode="normal" in="SourceGraphic" in2="effect1_dropShadow_481_4902" result="shape"/>
</filter>
<linearGradient id="paint0_linear_481_4902" x1="110.792" y1="63.1557" x2="127.675" y2="73.1699" gradientUnits="userSpaceOnUse">
<stop stop-color="#35CCCD"/>
<stop offset="1" stop-color="#EA63B9"/>
</linearGradient>
<linearGradient id="paint1_linear_481_4902" x1="120.698" y1="51.5" x2="109.543" y2="62.4481" gradientUnits="userSpaceOnUse">
<stop offset="0.00449121" stop-color="#F0584F"/>
<stop offset="1" stop-color="#35CCCD"/>
</linearGradient>
</defs>
</svg>
